  0
SECTION
  2
HEADER
  9
$ACADVER
  1
AC1014
  9
$ACADMAINTVER
 70
     9
  9
$DWGCODEPAGE
  3
ANSI_1252
  9
$INSBASE
 10
0.0
 20
0.0
 30
0.0
  9
$EXTMIN
 10
1.000000000000000E+20
 20
1.000000000000000E+20
 30
1.000000000000000E+20
  9
$EXTMAX
 10
-1.000000000000000E+20
 20
-1.000000000000000E+20
 30
-1.000000000000000E+20
  9
$LIMMIN
 10
0.0
 20
0.0
  9
$LIMMAX
 10
420.0
 20
297.0
  9
$ORTHOMODE
 70
     0
  9
$REGENMODE
 70
     1
  9
$FILLMODE
 70
     1
  9
$QTEXTMODE
 70
     0
  9
$MIRRTEXT
 70
     1
  9
$DRAGMODE
 70
     2
  9
$LTSCALE
 40
1.0
  9
$OSMODE
 70
    37
  9
$ATTMODE
 70
     1
  9
$TEXTSIZE
 40
2.5
  9
$TRACEWID
 40
1.0
  9
$TEXTSTYLE
  7
STANDARD
  9
$CLAYER
  8
0
  9
$CELTYPE
  6
BYLAYER
  9
$CECOLOR
 62
   256
  9
$CELTSCALE
 40
1.0
  9
$DELOBJ
 70
     1
  9
$DISPSILH
 70
     0
  9
$DIMSCALE
 40
1.0
  9
$DIMASZ
 40
3.0
  9
$DIMEXO
 40
0.625
  9
$DIMDLI
 40
3.75
  9
$DIMRND
 40
0.0
  9
$DIMDLE
 40
0.0
  9
$DIMEXE
 40
1.25
  9
$DIMTP
 40
0.0
  9
$DIMTM
 40
0.0
  9
$DIMTXT
 40
1.22550817624347
  9
$DIMCEN
 40
2.5
  9
$DIMTSZ
 40
0.0
  9
$DIMTOL
 70
     0
  9
$DIMLIM
 70
     0
  9
$DIMTIH
 70
     0
  9
$DIMTOH
 70
     0
  9
$DIMSE1
 70
     0
  9
$DIMSE2
 70
     0
  9
$DIMTAD
 70
     1
  9
$DIMZIN
 70
     8
  9
$DIMBLK
  1

  9
$DIMASO
 70
     1
  9
$DIMSHO
 70
     1
  9
$DIMPOST
  1

  9
$DIMAPOST
  1

  9
$DIMALT
 70
     0
  9
$DIMALTD
 70
     3
  9
$DIMALTF
 40
0.03937007874016
  9
$DIMLFAC
 40
1.0
  9
$DIMTOFL
 70
     1
  9
$DIMTVP
 40
0.0
  9
$DIMTIX
 70
     0
  9
$DIMSOXD
 70
     0
  9
$DIMSAH
 70
     0
  9
$DIMBLK1
  1

  9
$DIMBLK2
  1

  9
$DIMSTYLE
  2
ISO-25
  9
$DIMCLRD
 70
     0
  9
$DIMCLRE
 70
     0
  9
$DIMCLRT
 70
     0
  9
$DIMTFAC
 40
1.0
  9
$DIMGAP
 40
0.625
  9
$DIMJUST
 70
     0
  9
$DIMSD1
 70
     0
  9
$DIMSD2
 70
     0
  9
$DIMTOLJ
 70
     0
  9
$DIMTZIN
 70
     8
  9
$DIMALTZ
 70
     0
  9
$DIMALTTZ
 70
     0
  9
$DIMFIT
 70
     3
  9
$DIMUPT
 70
     0
  9
$DIMUNIT
 70
     2
  9
$DIMDEC
 70
     2
  9
$DIMTDEC
 70
     2
  9
$DIMALTU
 70
     2
  9
$DIMALTTD
 70
     3
  9
$DIMTXSTY
  7
STANDARD
  9
$DIMAUNIT
 70
     0
  9
$LUNITS
 70
     2
  9
$LUPREC
 70
     4
  9
$SKETCHINC
 40
1.0
  9
$FILLETRAD
 40
10.0
  9
$AUNITS
 70
     0
  9
$AUPREC
 70
     0
  9
$MENU
  1
.
  9
$ELEVATION
 40
0.0
  9
$PELEVATION
 40
0.0
  9
$THICKNESS
 40
0.0
  9
$LIMCHECK
 70
     0
  9
$CHAMFERA
 40
10.0
  9
$CHAMFERB
 40
10.0
  9
$CHAMFERC
 40
20.0
  9
$CHAMFERD
 40
0.0
  9
$SKPOLY
 70
     0
  9
$TDCREATE
 40
2457380.756283577
  9
$TDUPDATE
 40
2457380.756284445
  9
$TDINDWG
 40
0.0000000116
  9
$TDUSRTIMER
 40
0.0000000116
  9
$USRTIMER
 70
     1
  9
$ANGBASE
 50
0.0
  9
$ANGDIR
 70
     0
  9
$PDMODE
 70
     0
  9
$PDSIZE
 40
0.0
  9
$PLINEWID
 40
0.0
  9
$COORDS
 70
     1
  9
$SPLFRAME
 70
     0
  9
$SPLINETYPE
 70
     6
  9
$SPLINESEGS
 70
     8
  9
$ATTDIA
 70
     0
  9
$ATTREQ
 70
     1
  9
$HANDLING
 70
     1
  9
$HANDSEED
  5
2B6
  9
$SURFTAB1
 70
     6
  9
$SURFTAB2
 70
     6
  9
$SURFTYPE
 70
     6
  9
$SURFU
 70
     6
  9
$SURFV
 70
     6
  9
$UCSNAME
  2

  9
$UCSORG
 10
0.0
 20
0.0
 30
0.0
  9
$UCSXDIR
 10
1.0
 20
0.0
 30
0.0
  9
$UCSYDIR
 10
0.0
 20
1.0
 30
0.0
  9
$PUCSNAME
  2

  9
$PUCSORG
 10
0.0
 20
0.0
 30
0.0
  9
$PUCSXDIR
 10
1.0
 20
0.0
 30
0.0
  9
$PUCSYDIR
 10
0.0
 20
1.0
 30
0.0
  9
$USERI1
 70
     0
  9
$USERI2
 70
     0
  9
$USERI3
 70
     0
  9
$USERI4
 70
     0
  9
$USERI5
 70
     0
  9
$USERR1
 40
0.0
  9
$USERR2
 40
0.0
  9
$USERR3
 40
0.0
  9
$USERR4
 40
0.0
  9
$USERR5
 40
0.0
  9
$WORLDVIEW
 70
     1
  9
$SHADEDGE
 70
     3
  9
$SHADEDIF
 70
    70
  9
$TILEMODE
 70
     1
  9
$MAXACTVP
 70
    64
  9
$PINSBASE
 10
0.0
 20
0.0
 30
0.0
  9
$PLIMCHECK
 70
     0
  9
$PEXTMIN
 10
1.000000000000000E+20
 20
1.000000000000000E+20
 30
1.000000000000000E+20
  9
$PEXTMAX
 10
-1.000000000000000E+20
 20
-1.000000000000000E+20
 30
-1.000000000000000E+20
  9
$PLIMMIN
 10
0.0
 20
0.0
  9
$PLIMMAX
 10
420.0
 20
297.0
  9
$UNITMODE
 70
     0
  9
$VISRETAIN
 70
     1
  9
$PLINEGEN
 70
     0
  9
$PSLTSCALE
 70
     1
  9
$TREEDEPTH
 70
  3020
  9
$PICKSTYLE
 70
     1
  9
$CMLSTYLE
  2
STANDARD
  9
$CMLJUST
 70
     0
  9
$CMLSCALE
 40
20.0
  9
$PROXYGRAPHICS
 70
     1
  9
$MEASUREMENT
 70
     1
  0
ENDSEC
  0
SECTION
  2
CLASSES
  0
CLASS
  1
ACDBDICTIONARYWDFLT
  2
AcDbDictionaryWithDefault
  3
ObjectDBX Classes
 90
        0
280
     0
281
     0
  0
CLASS
  1
VISUALSTYLE
  2
AcDbVisualStyle
  3
ObjectDBX Classes
 90
     4095
280
     0
281
     0
  0
CLASS
  1
MATERIAL
  2
AcDbMaterial
  3
ObjectDBX Classes
 90
     1153
280
     0
281
     0
  0
CLASS
  1
DICTIONARYVAR
  2
AcDbDictionaryVar
  3
ObjectDBX Classes
 90
        0
280
     0
281
     0
  0
CLASS
  1
XRECORD
  2
AcDbXrecord
  3
AutoCAD 2000
 90
        0
280
     0
281
     0
  0
CLASS
  1
LWPOLYLINE
  2
AcDbPolyline
  3
AutoCAD 2000
 90
        0
280
     0
281
     1
  0
CLASS
  1
HATCH
  2
AcDbHatch
  3
AutoCAD 2000
 90
        0
280
     0
281
     1
  0
CLASS
  1
ACDBPLACEHOLDER
  2
AcDbPlaceHolder
  3
ObjectDBX Classes
 90
        0
280
     0
281
     0
  0
CLASS
  1
LAYOUT
  2
AcDbLayout
  3
ObjectDBX Classes
 90
        0
280
     0
281
     0
  0
ENDSEC
  0
SECTION
  2
TABLES
  0
TABLE
  2
VPORT
  5
8
330
0
100
AcDbSymbolTable
 70
     1
  0
VPORT
  5
29
330
8
100
AcDbSymbolTableRecord
100
AcDbViewportTableRecord
  2
*ACTIVE
 70
     0
 10
0.0
 20
0.0
 11
1.0
 21
1.0
 12
344.1869158878504
 22
148.5
 13
0.0
 23
0.0
 14
10.0
 24
10.0
 15
10.0
 25
10.0
 16
0.0
 26
0.0
 36
1.0
 17
0.0
 27
0.0
 37
0.0
 40
297.0
 41
1.972972972850329
 42
50.0
 43
0.0
 44
0.0
 50
0.0
 51
0.0
 71
     0
 72
   100
 73
     1
 74
     3
 75
     0
 76
     0
 77
     0
 78
     0
  0
ENDTAB
  0
TABLE
  2
LTYPE
  5
5
330
0
100
AcDbSymbolTable
 70
     1
  0
LTYPE
  5
14
330
5
100
AcDbSymbolTableRecord
100
AcDbLinetypeTableRecord
  2
BYBLOCK
 70
     0
  3

 72
    65
 73
     0
 40
0.0
  0
LTYPE
  5
15
330
5
100
AcDbSymbolTableRecord
100
AcDbLinetypeTableRecord
  2
BYLAYER
 70
     0
  3

 72
    65
 73
     0
 40
0.0
  0
LTYPE
  5
16
330
5
100
AcDbSymbolTableRecord
100
AcDbLinetypeTableRecord
  2
CONTINUOUS
 70
     0
  3
Solid line
 72
    65
 73
     0
 40
0.0
  0
ENDTAB
  0
TABLE
  2
LAYER
  5
2
330
0
100
AcDbSymbolTable
 70
     2
  0
LAYER
  5
10
330
2
100
AcDbSymbolTableRecord
100
AcDbLayerTableRecord
  2
0
 70
     0
 62
     7
  6
CONTINUOUS
  0
LAYER
  5
3F
330
2
100
AcDbSymbolTableRecord
100
AcDbLayerTableRecord
  2
VISIBLE
 70
     0
 62
     7
  6
CONTINUOUS
  0
ENDTAB
  0
TABLE
  2
STYLE
  5
3
330
0
100
AcDbSymbolTable
 70
     1
  0
STYLE
  5
11
330
3
100
AcDbSymbolTableRecord
100
AcDbTextStyleTableRecord
  2
STANDARD
 70
     0
 40
0.0
 41
1.0
 50
0.0
 71
     0
 42
2.5
  3
txt
  4

  0
ENDTAB
  0
TABLE
  2
VIEW
  5
6
330
0
100
AcDbSymbolTable
 70
     0
  0
ENDTAB
  0
TABLE
  2
UCS
  5
7
330
0
100
AcDbSymbolTable
 70
     0
  0
ENDTAB
  0
TABLE
  2
APPID
  5
9
330
0
100
AcDbSymbolTable
 70
     1
  0
APPID
  5
12
330
9
100
AcDbSymbolTableRecord
100
AcDbRegAppTableRecord
  2
ACAD
 70
     0
  0
ENDTAB
  0
TABLE
  2
DIMSTYLE
  5
A
330
0
100
AcDbSymbolTable
 70
     1
  0
DIMSTYLE
105
27
330
A
100
AcDbSymbolTableRecord
100
AcDbDimStyleTableRecord
  2
ISO-25
 70
     0
  3

  4

  5

  6

  7

 40
1.0
 41
2.5
 42
0.625
 43
3.75
 44
1.25
 45
0.0
 46
0.0
 47
0.0
 48
0.0
140
2.5
141
2.5
142
0.0
143
0.03937007874016
144
1.0
145
0.0
146
1.0
147
0.625
 71
     0
 72
     0
 73
     0
 74
     0
 75
     0
 76
     0
 77
     1
 78
     8
170
     0
171
     3
172
     1
173
     0
174
     0
175
     0
176
     0
177
     0
178
     0
270
     2
271
     2
272
     2
273
     2
274
     3
340
11
275
     0
280
     0
281
     0
282
     0
283
     0
284
     8
285
     0
286
     0
287
     3
288
     0
  0
ENDTAB
  0
TABLE
  2
BLOCK_RECORD
  5
1
330
0
100
AcDbSymbolTable
 70
     1
  0
BLOCK_RECORD
  5
1F
330
1
100
AcDbSymbolTableRecord
100
AcDbBlockTableRecord
  2
*MODEL_SPACE
  0
BLOCK_RECORD
  5
1B
330
1
100
AcDbSymbolTableRecord
100
AcDbBlockTableRecord
  2
*PAPER_SPACE
  0
ENDTAB
  0
ENDSEC
  0
SECTION
  2
BLOCKS
  0
BLOCK
  5
20
330
1F
100
AcDbEntity
  8
0
100
AcDbBlockBegin
  2
*MODEL_SPACE
 70
     0
 10
0.0
 20
0.0
 30
0.0
  3
*MODEL_SPACE
  1

  0
ENDBLK
  5
21
330
1F
100
AcDbEntity
  8
0
100
AcDbBlockEnd
  0
BLOCK
  5
1C
330
1B
100
AcDbEntity
 67
     1
  8
0
100
AcDbBlockBegin
  2
*PAPER_SPACE
 70
     0
 10
0.0
 20
0.0
 30
0.0
  3
*PAPER_SPACE
  1

  0
ENDBLK
  5
1D
330
1B
100
AcDbEntity
 67
     1
  8
0
100
AcDbBlockEnd
  0
ENDSEC
  0
SECTION
  2
ENTITIES
  0
LINE
  5
40
330
1F
100
AcDbEntity
  8
VISIBLE
100
AcDbLine
 10
36.82235717773398
 20
1779.28515625
 30
0.0
 11
36.82235717773398
 21
1949.28515625
 31
0.0
  0
CIRCLE
  5
41
330
1F
100
AcDbEntity
  8
VISIBLE
100
AcDbCircle
 10
371.822357177734
 20
1834.28515625
 30
0.0
 40
15.0
  0
CIRCLE
  5
42
330
1F
100
AcDbEntity
  8
VISIBLE
100
AcDbCircle
 10
441.822357177734
 20
1879.28515625
 30
0.0
 40
15.0
  0
LINE
  5
43
330
1F
100
AcDbEntity
  8
VISIBLE
100
AcDbLine
 10
491.822357177734
 20
1769.28515625
 30
0.0
 11
31.82235717773398
 21
1769.28515625
 31
0.0
  0
CIRCLE
  5
44
330
1F
100
AcDbEntity
  8
VISIBLE
100
AcDbCircle
 10
406.822357177734
 20
1879.28515625
 30
0.0
 40
15.0
  0
CIRCLE
  5
45
330
1F
100
AcDbEntity
  8
VISIBLE
100
AcDbCircle
 10
181.822357177734
 20
1844.28515625
 30
0.0
 40
15.0
  0
LINE
  5
46
330
1F
100
AcDbEntity
  8
VISIBLE
100
AcDbLine
 10
491.822357177734
 20
1779.28515625
 30
0.0
 11
491.822357177734
 21
1769.28515625
 31
0.0
  0
LINE
  5
47
330
1F
100
AcDbEntity
  8
VISIBLE
100
AcDbLine
 10
486.822357177734
 20
1949.28515625
 30
0.0
 11
486.822357177734
 21
1779.28515625
 31
0.0
  0
LINE
  5
48
330
1F
100
AcDbEntity
  8
VISIBLE
100
AcDbLine
 10
36.82235717773398
 20
1949.28515625
 30
0.0
 11
486.822357177734
 21
1949.28515625
 31
0.0
  0
CIRCLE
  5
49
330
1F
100
AcDbEntity
  8
VISIBLE
100
AcDbCircle
 10
311.822357177734
 20
1849.28515625
 30
0.0
 40
14.0
  0
LINE
  5
4A
330
1F
100
AcDbEntity
  8
VISIBLE
100
AcDbLine
 10
486.822357177734
 20
1779.28515625
 30
0.0
 11
491.822357177734
 21
1779.28515625
 31
0.0
  0
CIRCLE
  5
4B
330
1F
100
AcDbEntity
  8
VISIBLE
100
AcDbCircle
 10
86.82235717773398
 20
1849.28515625
 30
0.0
 40
14.0
  0
LINE
  5
4C
330
1F
100
AcDbEntity
  8
VISIBLE
100
AcDbLine
 10
31.82235717773398
 20
1779.28515625
 30
0.0
 11
36.82235717773398
 21
1779.28515625
 31
0.0
  0
CIRCLE
  5
4D
330
1F
100
AcDbEntity
  8
VISIBLE
100
AcDbCircle
 10
146.822357177734
 20
1869.28515625
 30
0.0
 40
15.0
  0
CIRCLE
  5
4E
330
1F
100
AcDbEntity
  8
VISIBLE
100
AcDbCircle
 10
146.822357177734
 20
1834.28515625
 30
0.0
 40
15.0
  0
LINE
  5
4F
330
1F
100
AcDbEntity
  8
VISIBLE
100
AcDbLine
 10
31.82235717773398
 20
1769.28515625
 30
0.0
 11
31.82235717773398
 21
1779.28515625
 31
0.0
  0
CIRCLE
  5
50
330
1F
100
AcDbEntity
  8
VISIBLE
100
AcDbCircle
 10
371.822357177734
 20
1869.28515625
 30
0.0
 40
15.0
  0
CIRCLE
  5
51
330
1F
100
AcDbEntity
  8
VISIBLE
100
AcDbCircle
 10
216.822357177734
 20
1844.28515625
 30
0.0
 40
15.0
  0
CIRCLE
  5
52
330
1F
100
AcDbEntity
  8
VISIBLE
100
AcDbCircle
 10
181.822357177734
 20
1879.28515625
 30
0.0
 40
15.0
  0
CIRCLE
  5
53
330
1F
100
AcDbEntity
  8
VISIBLE
100
AcDbCircle
 10
406.822357177734
 20
1844.28515625
 30
0.0
 40
15.0
  0
CIRCLE
  5
54
330
1F
100
AcDbEntity
  8
VISIBLE
100
AcDbCircle
 10
216.822357177734
 20
1879.28515625
 30
0.0
 40
15.0
  0
CIRCLE
  5
55
330
1F
100
AcDbEntity
  8
VISIBLE
100
AcDbCircle
 10
441.822357177734
 20
1844.28515625
 30
0.0
 40
15.0
  0
CIRCLE
  5
56
330
1F
100
AcDbEntity
  8
VISIBLE
100
AcDbCircle
 10
179.515563964844
 20
1540.16174316406
 30
0.0
 40
2.0
  0
LINE
  5
57
330
1F
100
AcDbEntity
  8
VISIBLE
100
AcDbLine
 10
495.515563964844
 20
1452.66174316406
 30
0.0
 11
495.515563964844
 21
1412.66174316406
 31
0.0
  0
LINE
  5
58
330
1F
100
AcDbEntity
  8
VISIBLE
100
AcDbLine
 10
495.515563964844
 20
1692.66174316406
 30
0.0
 11
484.515563964844
 21
1692.66174316406
 31
0.0
  0
CIRCLE
  5
59
330
1F
100
AcDbEntity
  8
VISIBLE
100
AcDbCircle
 10
219.515563964844
 20
1540.16174316406
 30
0.0
 40
2.0
  0
LINE
  5
5A
330
1F
100
AcDbEntity
  8
VISIBLE
100
AcDbLine
 10
487.515563964844
 20
1562.66174316406
 30
0.0
 11
490.515563964844
 21
1562.66174316406
 31
0.0
  0
LINE
  5
5B
330
1F
100
AcDbEntity
  8
VISIBLE
100
AcDbLine
 10
158.015563964844
 20
1578.66174316406
 30
0.0
 11
139.515563964844
 21
1578.66174316406
 31
0.0
  0
CIRCLE
  5
5C
330
1F
100
AcDbEntity
  8
VISIBLE
100
AcDbCircle
 10
339.515563964844
 20
1740.16174316406
 30
0.0
 40
2.0
  0
LINE
  5
5D
330
1F
100
AcDbEntity
  8
VISIBLE
100
AcDbLine
 10
487.515563964844
 20
1702.66174316406
 30
0.0
 11
490.515563964844
 21
1702.66174316406
 31
0.0
  0
LINE
  5
5E
330
1F
100
AcDbEntity
  8
VISIBLE
100
AcDbLine
 10
258.0155639648439
 20
1578.66174316406
 30
0.0
 11
239.515563964844
 21
1578.66174316406
 31
0.0
  0
LINE
  5
5F
330
1F
100
AcDbEntity
  8
VISIBLE
100
AcDbLine
 10
487.515563964844
 20
1442.66174316406
 30
0.0
 11
487.515563964844
 21
1422.66174316406
 31
0.0
  0
CIRCLE
  5
60
330
1F
100
AcDbEntity
  8
VISIBLE
100
AcDbCircle
 10
339.515563964844
 20
1500.16174316406
 30
0.0
 40
2.0
  0
LINE
  5
61
330
1F
100
AcDbEntity
  8
VISIBLE
100
AcDbLine
 10
34.51556396484398
 20
1692.66174316406
 30
0.0
 11
23.51556396484401
 21
1692.66174316406
 31
0.0
  0
LINE
  5
62
330
1F
100
AcDbEntity
  8
VISIBLE
100
AcDbLine
 10
339.515563964844
 20
1678.66174316406
 30
0.0
 11
339.515563964844
 21
1681.66174316406
 31
0.0
  0
LINE
  5
63
330
1F
100
AcDbEntity
  8
VISIBLE
100
AcDbLine
 10
484.515563964844
 20
1757.66174316406
 30
0.0
 11
484.515563964844
 21
1732.66174316406
 31
0.0
  0
CIRCLE
  5
64
330
1F
100
AcDbEntity
  8
VISIBLE
100
AcDbCircle
 10
419.515563964844
 20
1660.16174316406
 30
0.0
 40
2.0
  0
CIRCLE
  5
65
330
1F
100
AcDbEntity
  8
VISIBLE
100
AcDbCircle
 10
99.51556396484398
 20
1460.16174316406
 30
0.0
 40
2.0
  0
LINE
  5
66
330
1F
100
AcDbEntity
  8
VISIBLE
100
AcDbLine
 10
490.515563964844
 20
1422.66174316406
 30
0.0
 11
490.515563964844
 21
1442.66174316406
 31
0.0
  0
LINE
  5
67
330
1F
100
AcDbEntity
  8
VISIBLE
100
AcDbLine
 10
139.515563964844
 20
1481.66174316406
 30
0.0
 11
158.015563964844
 21
1481.66174316406
 31
0.0
  0
LINE
  5
68
330
1F
100
AcDbEntity
  8
VISIBLE
100
AcDbLine
 10
358.0155639648439
 20
1460.16174316406
 30
0.0
 11
358.0155639648439
 21
1478.66174316406
 31
0.0
  0
LINE
  5
69
330
1F
100
AcDbEntity
  8
VISIBLE
100
AcDbLine
 10
158.015563964844
 20
1678.66174316406
 30
0.0
 11
139.515563964844
 21
1678.66174316406
 31
0.0
  0
LINE
  5
6A
330
1F
100
AcDbEntity
  8
VISIBLE
100
AcDbLine
 10
31.51556396484398
 20
1562.66174316406
 30
0.0
 11
31.51556396484398
 21
1582.66174316406
 31
0.0
  0
LINE
  5
6B
330
1F
100
AcDbEntity
  8
VISIBLE
100
AcDbLine
 10
361.015563964844
 20
1700.16174316406
 30
0.0
 11
361.015563964844
 21
1681.66174316406
 31
0.0
  0
LINE
  5
6C
330
1F
100
AcDbEntity
  8
VISIBLE
100
AcDbLine
 10
261.015563964844
 20
1600.16174316406
 30
0.0
 11
261.015563964844
 21
1581.66174316406
 31
0.0
  0
LINE
  5
6D
330
1F
100
AcDbEntity
  8
VISIBLE
100
AcDbLine
 10
484.515563964844
 20
1412.66174316406
 30
0.0
 11
484.515563964844
 21
1402.66174316406
 31
0.0
  0
LINE
  5
6E
330
1F
100
AcDbEntity
  8
VISIBLE
100
AcDbLine
 10
358.0155639648439
 20
1500.16174316406
 30
0.0
 11
361.015563964844
 21
1500.16174316406
 31
0.0
  0
CIRCLE
  5
6F
330
1F
100
AcDbEntity
  8
VISIBLE
100
AcDbCircle
 10
379.515563964844
 20
1660.16174316406
 30
0.0
 40
2.0
  0
CIRCLE
  5
70
330
1F
100
AcDbEntity
  8
VISIBLE
100
AcDbCircle
 10
219.515563964844
 20
1740.16174316406
 30
0.0
 40
2.0
  0
LINE
  5
71
330
1F
100
AcDbEntity
  8
VISIBLE
100
AcDbLine
 10
161.0155639648441
 20
1481.66174316406
 30
0.0
 11
179.515563964844
 21
1481.66174316406
 31
0.0
  0
LINE
  5
72
330
1F
100
AcDbEntity
  8
VISIBLE
100
AcDbLine
 10
158.015563964844
 20
1681.66174316406
 30
0.0
 11
158.015563964844
 21
1700.16174316406
 31
0.0
  0
LINE
  5
73
330
1F
100
AcDbEntity
  8
VISIBLE
100
AcDbLine
 10
179.515563964844
 20
1681.66174316406
 30
0.0
 11
179.515563964844
 21
1678.66174316406
 31
0.0
  0
LINE
  5
74
330
1F
100
AcDbEntity
  8
VISIBLE
100
AcDbLine
 10
339.5155639648439
 20
1581.66174316406
 30
0.0
 11
358.015563964844
 21
1581.66174316406
 31
0.0
  0
CIRCLE
  5
75
330
1F
100
AcDbEntity
  8
VISIBLE
100
AcDbCircle
 10
219.515563964844
 20
1700.16174316406
 30
0.0
 40
2.0
  0
LINE
  5
76
330
1F
100
AcDbEntity
  8
VISIBLE
100
AcDbLine
 10
31.51556396484398
 20
1582.66174316406
 30
0.0
 11
28.51556396484398
 21
1582.66174316406
 31
0.0
  0
LINE
  5
77
330
1F
100
AcDbEntity
  8
VISIBLE
100
AcDbLine
 10
358.015563964844
 20
1578.66174316406
 30
0.0
 11
339.5155639648439
 21
1578.66174316406
 31
0.0
  0
LINE
  5
78
330
1F
100
AcDbEntity
  8
VISIBLE
100
AcDbLine
 10
34.51556396484398
 20
1732.66174316406
 30
0.0
 11
34.51556396484398
 21
1757.66174316406
 31
0.0
  0
CIRCLE
  5
79
330
1F
100
AcDbEntity
  8
VISIBLE
100
AcDbCircle
 10
299.515563964844
 20
1660.16174316406
 30
0.0
 40
2.0
  0
CIRCLE
  5
7A
330
1F
100
AcDbEntity
  8
VISIBLE
100
AcDbCircle
 10
419.515563964844
 20
1700.16174316406
 30
0.0
 40
2.0
  0
LINE
  5
7B
330
1F
100
AcDbEntity
  8
VISIBLE
100
AcDbLine
 10
495.515563964844
 20
1552.66174316406
 30
0.0
 11
484.515563964844
 21
1552.66174316406
 31
0.0
  0
LINE
  5
7C
330
1F
100
AcDbEntity
  8
VISIBLE
100
AcDbLine
 10
379.515563964844
 20
1481.66174316406
 30
0.0
 11
379.515563964844
 21
1478.66174316406
 31
0.0
  0
LINE
  5
7D
330
1F
100
AcDbEntity
  8
VISIBLE
100
AcDbLine
 10
361.015563964844
 20
1560.16174316406
 30
0.0
 11
358.0155639648439
 21
1560.16174316406
 31
0.0
  0
LINE
  5
7E
330
1F
100
AcDbEntity
  8
VISIBLE
100
AcDbLine
 10
34.51556396484398
 20
1757.66174316406
 30
0.0
 11
484.515563964844
 21
1757.66174316406
 31
0.0
  0
LINE
  5
7F
330
1F
100
AcDbEntity
  8
VISIBLE
100
AcDbLine
 10
23.51556396484398
 20
1452.66174316406
 30
0.0
 11
34.51556396484398
 21
1452.66174316406
 31
0.0
  0
LINE
  5
80
330
1F
100
AcDbEntity
  8
VISIBLE
100
AcDbLine
 10
379.515563964844
 20
1581.66174316406
 30
0.0
 11
379.515563964844
 21
1578.66174316406
 31
0.0
  0
CIRCLE
  5
81
330
1F
100
AcDbEntity
  8
VISIBLE
100
AcDbCircle
 10
299.515563964844
 20
1500.16174316406
 30
0.0
 40
2.0
  0
CIRCLE
  5
82
330
1F
100
AcDbEntity
  8
VISIBLE
100
AcDbCircle
 10
179.515563964844
 20
1740.16174316406
 30
0.0
 40
2.0
  0
LINE
  5
83
330
1F
100
AcDbEntity
  8
VISIBLE
100
AcDbLine
 10
279.515563964844
 20
1581.66174316406
 30
0.0
 11
279.515563964844
 21
1578.66174316406
 31
0.0
  0
LINE
  5
84
330
1F
100
AcDbEntity
  8
VISIBLE
100
AcDbLine
 10
258.0155639648439
 20
1581.66174316406
 30
0.0
 11
258.0155639648439
 21
1600.16174316406
 31
0.0
  0
CIRCLE
  5
85
330
1F
100
AcDbEntity
  8
VISIBLE
100
AcDbCircle
 10
419.515563964844
 20
1460.16174316406
 30
0.0
 40
2.0
  0
LINE
  5
86
330
1F
100
AcDbEntity
  8
VISIBLE
100
AcDbLine
 10
261.015563964844
 20
1560.16174316406
 30
0.0
 11
258.0155639648439
 21
1560.16174316406
 31
0.0
  0
LINE
  5
87
330
1F
100
AcDbEntity
  8
VISIBLE
100
AcDbLine
 10
158.015563964844
 20
1600.16174316406
 30
0.0
 11
161.015563964844
 21
1600.16174316406
 31
0.0
  0
LINE
  5
88
330
1F
100
AcDbEntity
  8
VISIBLE
100
AcDbLine
 10
358.0155639648439
 20
1560.16174316406
 30
0.0
 11
358.015563964844
 21
1578.66174316406
 31
0.0
  0
LINE
  5
89
330
1F
100
AcDbEntity
  8
VISIBLE
100
AcDbLine
 10
179.515563964844
 20
1581.66174316406
 30
0.0
 11
179.515563964844
 21
1578.66174316406
 31
0.0
  0
LINE
  5
8A
330
1F
100
AcDbEntity
  8
VISIBLE
100
AcDbLine
 10
158.015563964844
 20
1660.16174316406
 30
0.0
 11
158.015563964844
 21
1678.66174316406
 31
0.0
  0
LINE
  5
8B
330
1F
100
AcDbEntity
  8
VISIBLE
100
AcDbLine
 10
339.515563964844
 20
1681.66174316406
 30
0.0
 11
358.015563964844
 21
1681.66174316406
 31
0.0
  0
CIRCLE
  5
8C
330
1F
100
AcDbEntity
  8
VISIBLE
100
AcDbCircle
 10
139.515563964844
 20
1660.16174316406
 30
0.0
 40
2.0
  0
CIRCLE
  5
8D
330
1F
100
AcDbEntity
  8
VISIBLE
100
AcDbCircle
 10
179.515563964844
 20
1420.16174316406
 30
0.0
 40
2.0
  0
LINE
  5
8E
330
1F
100
AcDbEntity
  8
VISIBLE
100
AcDbLine
 10
23.51556396484401
 20
1692.66174316406
 30
0.0
 11
23.51556396484401
 21
1732.66174316406
 31
0.0
  0
CIRCLE
  5
8F
330
1F
100
AcDbEntity
  8
VISIBLE
100
AcDbCircle
 10
139.515563964844
 20
1540.16174316406
 30
0.0
 40
2.0
  0
LINE
  5
90
330
1F
100
AcDbEntity
  8
VISIBLE
100
AcDbLine
 10
28.51556396484398
 20
1702.66174316406
 30
0.0
 11
31.51556396484398
 21
1702.66174316406
 31
0.0
  0
LINE
  5
91
330
1F
100
AcDbEntity
  8
VISIBLE
100
AcDbLine
 10
279.515563964844
 20
1578.66174316406
 30
0.0
 11
261.015563964844
 21
1578.66174316406
 31
0.0
  0
CIRCLE
  5
92
330
1F
100
AcDbEntity
  8
VISIBLE
100
AcDbCircle
 10
419.515563964844
 20
1740.16174316406
 30
0.0
 40
2.0
  0
LINE
  5
93
330
1F
100
AcDbEntity
  8
VISIBLE
100
AcDbLine
 10
490.515563964844
 20
1562.66174316406
 30
0.0
 11
490.515563964844
 21
1582.66174316406
 31
0.0
  0
CIRCLE
  5
94
330
1F
100
AcDbEntity
  8
VISIBLE
100
AcDbCircle
 10
299.515563964844
 20
1540.16174316406
 30
0.0
 40
2.0
  0
LINE
  5
95
330
1F
100
AcDbEntity
  8
VISIBLE
100
AcDbLine
 10
490.515563964844
 20
1702.66174316406
 30
0.0
 11
490.515563964844
 21
1722.66174316406
 31
0.0
  0
LINE
  5
96
330
1F
100
AcDbEntity
  8
VISIBLE
100
AcDbLine
 10
358.015563964844
 20
1700.16174316406
 30
0.0
 11
361.015563964844
 21
1700.16174316406
 31
0.0
  0
LINE
  5
97
330
1F
100
AcDbEntity
  8
VISIBLE
100
AcDbLine
 10
179.515563964844
 20
1678.66174316406
 30
0.0
 11
161.015563964844
 21
1678.66174316406
 31
0.0
  0
CIRCLE
  5
98
330
1F
100
AcDbEntity
  8
VISIBLE
100
AcDbCircle
 10
419.515563964844
 20
1420.16174316406
 30
0.0
 40
2.0
  0
LINE
  5
99
330
1F
100
AcDbEntity
  8
VISIBLE
100
AcDbLine
 10
261.015563964844
 20
1581.66174316406
 30
0.0
 11
279.515563964844
 21
1581.66174316406
 31
0.0
  0
LINE
  5
9A
330
1F
100
AcDbEntity
  8
VISIBLE
100
AcDbLine
 10
361.015563964844
 20
1600.16174316406
 30
0.0
 11
361.015563964844
 21
1581.66174316406
 31
0.0
  0
CIRCLE
  5
9B
330
1F
100
AcDbEntity
  8
VISIBLE
100
AcDbCircle
 10
139.515563964844
 20
1500.16174316406
 30
0.0
 40
2.0
  0
LINE
  5
9C
330
1F
100
AcDbEntity
  8
VISIBLE
100
AcDbLine
 10
258.0155639648439
 20
1600.16174316406
 30
0.0
 11
261.015563964844
 21
1600.16174316406
 31
0.0
  0
LINE
  5
9D
330
1F
100
AcDbEntity
  8
VISIBLE
100
AcDbLine
 10
34.51556396484398
 20
1552.66174316406
 30
0.0
 11
23.51556396484401
 21
1552.66174316406
 31
0.0
  0
LINE
  5
9E
330
1F
100
AcDbEntity
  8
VISIBLE
100
AcDbLine
 10
484.515563964844
 20
1402.66174316406
 30
0.0
 11
34.51556396484398
 21
1402.66174316406
 31
0.0
  0
CIRCLE
  5
9F
330
1F
100
AcDbEntity
  8
VISIBLE
100
AcDbCircle
 10
179.515563964844
 20
1500.16174316406
 30
0.0
 40
2.0
  0
LINE
  5
A0
330
1F
100
AcDbEntity
  8
VISIBLE
100
AcDbLine
 10
358.015563964844
 20
1581.66174316406
 30
0.0
 11
358.0155639648439
 21
1600.16174316406
 31
0.0
  0
CIRCLE
  5
A1
330
1F
100
AcDbEntity
  8
VISIBLE
100
AcDbCircle
 10
99.51556396484398
 20
1500.16174316406
 30
0.0
 40
2.0
  0
LINE
  5
A2
330
1F
100
AcDbEntity
  8
VISIBLE
100
AcDbLine
 10
358.0155639648439
 20
1600.16174316406
 30
0.0
 11
361.015563964844
 21
1600.16174316406
 31
0.0
  0
LINE
  5
A3
330
1F
100
AcDbEntity
  8
VISIBLE
100
AcDbLine
 10
158.015563964844
 20
1700.16174316406
 30
0.0
 11
161.015563964844
 21
1700.16174316406
 31
0.0
  0
CIRCLE
  5
A4
330
1F
100
AcDbEntity
  8
VISIBLE
100
AcDbCircle
 10
339.515563964844
 20
1620.16174316406
 30
0.0
 40
2.0
  0
CIRCLE
  5
A5
330
1F
100
AcDbEntity
  8
VISIBLE
100
AcDbCircle
 10
379.515563964844
 20
1420.16174316406
 30
0.0
 40
2.0
  0
LINE
  5
A6
330
1F
100
AcDbEntity
  8
VISIBLE
100
AcDbLine
 10
161.015563964844
 20
1600.16174316406
 30
0.0
 11
161.015563964844
 21
1581.66174316406
 31
0.0
  0
LINE
  5
A7
330
1F
100
AcDbEntity
  8
VISIBLE
100
AcDbLine
 10
139.515563964844
 20
1478.66174316406
 30
0.0
 11
139.515563964844
 21
1481.66174316406
 31
0.0
  0
LINE
  5
A8
330
1F
100
AcDbEntity
  8
VISIBLE
100
AcDbLine
 10
23.51556396484398
 20
1412.66174316406
 30
0.0
 11
23.51556396484398
 21
1452.66174316406
 31
0.0
  0
LINE
  5
A9
330
1F
100
AcDbEntity
  8
VISIBLE
100
AcDbLine
 10
139.515563964844
 20
1581.66174316406
 30
0.0
 11
158.015563964844
 21
1581.66174316406
 31
0.0
  0
CIRCLE
  5
AA
330
1F
100
AcDbEntity
  8
VISIBLE
100
AcDbCircle
 10
139.515563964844
 20
1460.16174316406
 30
0.0
 40
2.0
  0
LINE
  5
AB
330
1F
100
AcDbEntity
  8
VISIBLE
100
AcDbLine
 10
34.51556396484398
 20
1412.66174316406
 30
0.0
 11
23.51556396484398
 21
1412.66174316406
 31
0.0
  0
LINE
  5
AC
330
1F
100
AcDbEntity
  8
VISIBLE
100
AcDbLine
 10
361.015563964844
 20
1660.16174316406
 30
0.0
 11
358.015563964844
 21
1660.16174316406
 31
0.0
  0
CIRCLE
  5
AD
330
1F
100
AcDbEntity
  8
VISIBLE
100
AcDbCircle
 10
339.515563964844
 20
1420.16174316406
 30
0.0
 40
2.0
  0
LINE
  5
AE
330
1F
100
AcDbEntity
  8
VISIBLE
100
AcDbLine
 10
31.51556396484398
 20
1722.66174316406
 30
0.0
 11
28.51556396484398
 21
1722.66174316406
 31
0.0
  0
LINE
  5
AF
330
1F
100
AcDbEntity
  8
VISIBLE
100
AcDbLine
 10
239.515563964844
 20
1581.66174316406
 30
0.0
 11
258.0155639648439
 21
1581.66174316406
 31
0.0
  0
LINE
  5
B0
330
1F
100
AcDbEntity
  8
VISIBLE
100
AcDbLine
 10
361.015563964844
 20
1578.66174316406
 30
0.0
 11
361.015563964844
 21
1560.16174316406
 31
0.0
  0
CIRCLE
  5
B1
330
1F
100
AcDbEntity
  8
VISIBLE
100
AcDbCircle
 10
379.515563964844
 20
1740.16174316406
 30
0.0
 40
2.0
  0
LINE
  5
B2
330
1F
100
AcDbEntity
  8
VISIBLE
100
AcDbLine
 10
358.015563964844
 20
1681.66174316406
 30
0.0
 11
358.015563964844
 21
1700.16174316406
 31
0.0
  0
LINE
  5
B3
330
1F
100
AcDbEntity
  8
VISIBLE
100
AcDbLine
 10
34.51556396484398
 20
1402.66174316406
 30
0.0
 11
34.51556396484398
 21
1412.66174316406
 31
0.0
  0
LINE
  5
B4
330
1F
100
AcDbEntity
  8
VISIBLE
100
AcDbLine
 10
361.015563964844
 20
1678.66174316406
 30
0.0
 11
361.015563964844
 21
1660.16174316406
 31
0.0
  0
LINE
  5
B5
330
1F
100
AcDbEntity
  8
VISIBLE
100
AcDbLine
 10
161.015563964844
 20
1660.16174316406
 30
0.0
 11
158.015563964844
 21
1660.16174316406
 31
0.0
  0
LINE
  5
B6
330
1F
100
AcDbEntity
  8
VISIBLE
100
AcDbLine
 10
34.51556396484398
 20
1452.66174316406
 30
0.0
 11
34.51556396484398
 21
1552.66174316406
 31
0.0
  0
LINE
  5
B7
330
1F
100
AcDbEntity
  8
VISIBLE
100
AcDbLine
 10
379.515563964844
 20
1678.66174316406
 30
0.0
 11
361.015563964844
 21
1678.66174316406
 31
0.0
  0
CIRCLE
  5
B8
330
1F
100
AcDbEntity
  8
VISIBLE
100
AcDbCircle
 10
379.515563964844
 20
1500.16174316406
 30
0.0
 40
2.0
  0
CIRCLE
  5
B9
330
1F
100
AcDbEntity
  8
VISIBLE
100
AcDbCircle
 10
339.515563964844
 20
1540.16174316406
 30
0.0
 40
2.0
  0
LINE
  5
BA
330
1F
100
AcDbEntity
  8
VISIBLE
100
AcDbLine
 10
23.51556396484401
 20
1592.66174316406
 30
0.0
 11
34.51556396484398
 21
1592.66174316406
 31
0.0
  0
CIRCLE
  5
BB
330
1F
100
AcDbEntity
  8
VISIBLE
100
AcDbCircle
 10
299.515563964844
 20
1460.16174316406
 30
0.0
 40
2.0
  0
CIRCLE
  5
BC
330
1F
100
AcDbEntity
  8
VISIBLE
100
AcDbCircle
 10
219.515563964844
 20
1620.16174316406
 30
0.0
 40
2.0
  0
CIRCLE
  5
BD
330
1F
100
AcDbEntity
  8
VISIBLE
100
AcDbCircle
 10
99.51556396484398
 20
1740.16174316406
 30
0.0
 40
2.0
  0
CIRCLE
  5
BE
330
1F
100
AcDbEntity
  8
VISIBLE
100
AcDbCircle
 10
179.515563964844
 20
1620.16174316406
 30
0.0
 40
2.0
  0
CIRCLE
  5
BF
330
1F
100
AcDbEntity
  8
VISIBLE
100
AcDbCircle
 10
139.515563964844
 20
1700.16174316406
 30
0.0
 40
2.0
  0
LINE
  5
C0
330
1F
100
AcDbEntity
  8
VISIBLE
100
AcDbLine
 10
361.015563964844
 20
1460.16174316406
 30
0.0
 11
358.0155639648439
 21
1460.16174316406
 31
0.0
  0
CIRCLE
  5
C1
330
1F
100
AcDbEntity
  8
VISIBLE
100
AcDbCircle
 10
99.51556396484398
 20
1620.16174316406
 30
0.0
 40
2.0
  0
LINE
  5
C2
330
1F
100
AcDbEntity
  8
VISIBLE
100
AcDbLine
 10
161.015563964844
 20
1560.16174316406
 30
0.0
 11
158.015563964844
 21
1560.16174316406
 31
0.0
  0
LINE
  5
C3
330
1F
100
AcDbEntity
  8
VISIBLE
100
AcDbLine
 10
490.515563964844
 20
1582.66174316406
 30
0.0
 11
487.515563964844
 21
1582.66174316406
 31
0.0
  0
LINE
  5
C4
330
1F
100
AcDbEntity
  8
VISIBLE
100
AcDbLine
 10
158.015563964844
 20
1481.66174316406
 30
0.0
 11
158.015563964844
 21
1500.16174316406
 31
0.0
  0
LINE
  5
C5
330
1F
100
AcDbEntity
  8
VISIBLE
100
AcDbLine
 10
158.015563964844
 20
1478.66174316406
 30
0.0
 11
139.515563964844
 21
1478.66174316406
 31
0.0
  0
CIRCLE
  5
C6
330
1F
100
AcDbEntity
  8
VISIBLE
100
AcDbCircle
 10
139.515563964844
 20
1620.16174316406
 30
0.0
 40
2.0
  0
LINE
  5
C7
330
1F
100
AcDbEntity
  8
VISIBLE
100
AcDbLine
 10
23.51556396484401
 20
1732.66174316406
 30
0.0
 11
34.51556396484398
 21
1732.66174316406
 31
0.0
  0
CIRCLE
  5
C8
330
1F
100
AcDbEntity
  8
VISIBLE
100
AcDbCircle
 10
419.515563964844
 20
1620.16174316406
 30
0.0
 40
2.0
  0
LINE
  5
C9
330
1F
100
AcDbEntity
  8
VISIBLE
100
AcDbLine
 10
158.015563964844
 20
1460.16174316406
 30
0.0
 11
158.015563964844
 21
1478.66174316406
 31
0.0
  0
CIRCLE
  5
CA
330
1F
100
AcDbEntity
  8
VISIBLE
100
AcDbCircle
 10
179.515563964844
 20
1660.16174316406
 30
0.0
 40
2.0
  0
CIRCLE
  5
CB
330
1F
100
AcDbEntity
  8
VISIBLE
100
AcDbCircle
 10
379.515563964844
 20
1460.16174316406
 30
0.0
 40
2.0
  0
LINE
  5
CC
330
1F
100
AcDbEntity
  8
VISIBLE
100
AcDbLine
 10
361.015563964844
 20
1581.66174316406
 30
0.0
 11
379.515563964844
 21
1581.66174316406
 31
0.0
  0
LINE
  5
CD
330
1F
100
AcDbEntity
  8
VISIBLE
100
AcDbLine
 10
495.515563964844
 20
1732.66174316406
 30
0.0
 11
495.515563964844
 21
1692.66174316406
 31
0.0
  0
LINE
  5
CE
330
1F
100
AcDbEntity
  8
VISIBLE
100
AcDbLine
 10
261.015563964844
 20
1578.66174316406
 30
0.0
 11
261.015563964844
 21
1560.16174316406
 31
0.0
  0
LINE
  5
CF
330
1F
100
AcDbEntity
  8
VISIBLE
100
AcDbLine
 10
358.0155639648439
 20
1478.66174316406
 30
0.0
 11
339.515563964844
 21
1478.66174316406
 31
0.0
  0
LINE
  5
D0
330
1F
100
AcDbEntity
  8
VISIBLE
100
AcDbLine
 10
28.51556396484398
 20
1582.66174316406
 30
0.0
 11
28.51556396484398
 21
1562.66174316406
 31
0.0
  0
CIRCLE
  5
D1
330
1F
100
AcDbEntity
  8
VISIBLE
100
AcDbCircle
 10
339.515563964844
 20
1700.16174316406
 30
0.0
 40
2.0
  0
LINE
  5
D2
330
1F
100
AcDbEntity
  8
VISIBLE
100
AcDbLine
 10
161.015563964844
 20
1678.66174316406
 30
0.0
 11
161.015563964844
 21
1660.16174316406
 31
0.0
  0
LINE
  5
D3
330
1F
100
AcDbEntity
  8
VISIBLE
100
AcDbLine
 10
490.515563964844
 20
1722.66174316406
 30
0.0
 11
487.515563964844
 21
1722.66174316406
 31
0.0
  0
LINE
  5
D4
330
1F
100
AcDbEntity
  8
VISIBLE
100
AcDbLine
 10
484.515563964844
 20
1452.66174316406
 30
0.0
 11
495.515563964844
 21
1452.66174316406
 31
0.0
  0
CIRCLE
  5
D5
330
1F
100
AcDbEntity
  8
VISIBLE
100
AcDbCircle
 10
219.515563964844
 20
1660.16174316406
 30
0.0
 40
2.0
  0
LINE
  5
D6
330
1F
100
AcDbEntity
  8
VISIBLE
100
AcDbLine
 10
161.015563964844
 20
1700.16174316406
 30
0.0
 11
161.015563964844
 21
1681.66174316406
 31
0.0
  0
CIRCLE
  5
D7
330
1F
100
AcDbEntity
  8
VISIBLE
100
AcDbCircle
 10
219.515563964844
 20
1460.16174316406
 30
0.0
 40
2.0
  0
CIRCLE
  5
D8
330
1F
100
AcDbEntity
  8
VISIBLE
100
AcDbCircle
 10
179.515563964844
 20
1460.16174316406
 30
0.0
 40
2.0
  0
LINE
  5
D9
330
1F
100
AcDbEntity
  8
VISIBLE
100
AcDbLine
 10
358.015563964844
 20
1678.66174316406
 30
0.0
 11
339.515563964844
 21
1678.66174316406
 31
0.0
  0
LINE
  5
DA
330
1F
100
AcDbEntity
  8
VISIBLE
100
AcDbLine
 10
31.51556396484398
 20
1422.66174316406
 30
0.0
 11
31.51556396484398
 21
1442.66174316406
 31
0.0
  0
LINE
  5
DB
330
1F
100
AcDbEntity
  8
VISIBLE
100
AcDbLine
 10
158.015563964844
 20
1560.16174316406
 30
0.0
 11
158.015563964844
 21
1578.66174316406
 31
0.0
  0
LINE
  5
DC
330
1F
100
AcDbEntity
  8
VISIBLE
100
AcDbLine
 10
484.515563964844
 20
1692.66174316406
 30
0.0
 11
484.515563964844
 21
1592.66174316406
 31
0.0
  0
LINE
  5
DD
330
1F
100
AcDbEntity
  8
VISIBLE
100
AcDbLine
 10
161.0155639648441
 20
1478.66174316406
 30
0.0
 11
161.0155639648441
 21
1460.16174316406
 31
0.0
  0
LINE
  5
DE
330
1F
100
AcDbEntity
  8
VISIBLE
100
AcDbLine
 10
358.0155639648439
 20
1481.66174316406
 30
0.0
 11
358.0155639648439
 21
1500.16174316406
 31
0.0
  0
CIRCLE
  5
DF
330
1F
100
AcDbEntity
  8
VISIBLE
100
AcDbCircle
 10
299.515563964844
 20
1420.16174316406
 30
0.0
 40
2.0
  0
CIRCLE
  5
E0
330
1F
100
AcDbEntity
  8
VISIBLE
100
AcDbCircle
 10
299.515563964844
 20
1740.16174316406
 30
0.0
 40
2.0
  0
CIRCLE
  5
E1
330
1F
100
AcDbEntity
  8
VISIBLE
100
AcDbCircle
 10
339.515563964844
 20
1460.16174316406
 30
0.0
 40
2.0
  0
LINE
  5
E2
330
1F
100
AcDbEntity
  8
VISIBLE
100
AcDbLine
 10
495.515563964844
 20
1592.66174316406
 30
0.0
 11
495.515563964844
 21
1552.66174316406
 31
0.0
  0
LINE
  5
E3
330
1F
100
AcDbEntity
  8
VISIBLE
100
AcDbLine
 10
158.015563964844
 20
1500.16174316406
 30
0.0
 11
161.0155639648441
 21
1500.16174316406
 31
0.0
  0
CIRCLE
  5
E4
330
1F
100
AcDbEntity
  8
VISIBLE
100
AcDbCircle
 10
219.515563964844
 20
1500.16174316406
 30
0.0
 40
2.0
  0
LINE
  5
E5
330
1F
100
AcDbEntity
  8
VISIBLE
100
AcDbLine
 10
31.51556396484398
 20
1702.66174316406
 30
0.0
 11
31.51556396484398
 21
1722.66174316406
 31
0.0
  0
LINE
  5
E6
330
1F
100
AcDbEntity
  8
VISIBLE
100
AcDbLine
 10
23.51556396484401
 20
1552.66174316406
 30
0.0
 11
23.51556396484401
 21
1592.66174316406
 31
0.0
  0
LINE
  5
E7
330
1F
100
AcDbEntity
  8
VISIBLE
100
AcDbLine
 10
487.515563964844
 20
1582.66174316406
 30
0.0
 11
487.515563964844
 21
1562.66174316406
 31
0.0
  0
CIRCLE
  5
E8
330
1F
100
AcDbEntity
  8
VISIBLE
100
AcDbCircle
 10
339.515563964844
 20
1660.16174316406
 30
0.0
 40
2.0
  0
LINE
  5
E9
330
1F
100
AcDbEntity
  8
VISIBLE
100
AcDbLine
 10
179.515563964844
 20
1481.66174316406
 30
0.0
 11
179.515563964844
 21
1478.66174316406
 31
0.0
  0
LINE
  5
EA
330
1F
100
AcDbEntity
  8
VISIBLE
100
AcDbLine
 10
28.51556396484398
 20
1442.66174316406
 30
0.0
 11
28.51556396484398
 21
1422.66174316406
 31
0.0
  0
LINE
  5
EB
330
1F
100
AcDbEntity
  8
VISIBLE
100
AcDbLine
 10
339.515563964844
 20
1478.66174316406
 30
0.0
 11
339.515563964844
 21
1481.66174316406
 31
0.0
  0
LINE
  5
EC
330
1F
100
AcDbEntity
  8
VISIBLE
100
AcDbLine
 10
258.0155639648439
 20
1560.16174316406
 30
0.0
 11
258.0155639648439
 21
1578.66174316406
 31
0.0
  0
LINE
  5
ED
330
1F
100
AcDbEntity
  8
VISIBLE
100
AcDbLine
 10
139.515563964844
 20
1678.66174316406
 30
0.0
 11
139.515563964844
 21
1681.66174316406
 31
0.0
  0
LINE
  5
EE
330
1F
100
AcDbEntity
  8
VISIBLE
100
AcDbLine
 10
34.51556396484398
 20
1592.66174316406
 30
0.0
 11
34.51556396484398
 21
1692.66174316406
 31
0.0
  0
LINE
  5
EF
330
1F
100
AcDbEntity
  8
VISIBLE
100
AcDbLine
 10
161.0155639648441
 20
1460.16174316406
 30
0.0
 11
158.015563964844
 21
1460.16174316406
 31
0.0
  0
CIRCLE
  5
F0
330
1F
100
AcDbEntity
  8
VISIBLE
100
AcDbCircle
 10
219.515563964844
 20
1420.16174316406
 30
0.0
 40
2.0
  0
LINE
  5
F1
330
1F
100
AcDbEntity
  8
VISIBLE
100
AcDbLine
 10
161.0155639648441
 20
1500.16174316406
 30
0.0
 11
161.0155639648441
 21
1481.66174316406
 31
0.0
  0
LINE
  5
F2
330
1F
100
AcDbEntity
  8
VISIBLE
100
AcDbLine
 10
161.015563964844
 20
1578.66174316406
 30
0.0
 11
161.015563964844
 21
1560.16174316406
 31
0.0
  0
LINE
  5
F3
330
1F
100
AcDbEntity
  8
VISIBLE
100
AcDbLine
 10
139.515563964844
 20
1578.66174316406
 30
0.0
 11
139.515563964844
 21
1581.66174316406
 31
0.0
  0
LINE
  5
F4
330
1F
100
AcDbEntity
  8
VISIBLE
100
AcDbLine
 10
28.51556396484398
 20
1722.66174316406
 30
0.0
 11
28.51556396484398
 21
1702.66174316406
 31
0.0
  0
LINE
  5
F5
330
1F
100
AcDbEntity
  8
VISIBLE
100
AcDbLine
 10
490.515563964844
 20
1442.66174316406
 30
0.0
 11
487.515563964844
 21
1442.66174316406
 31
0.0
  0
LINE
  5
F6
330
1F
100
AcDbEntity
  8
VISIBLE
100
AcDbLine
 10
239.515563964844
 20
1578.66174316406
 30
0.0
 11
239.515563964844
 21
1581.66174316406
 31
0.0
  0
LINE
  5
F7
330
1F
100
AcDbEntity
  8
VISIBLE
100
AcDbLine
 10
161.015563964844
 20
1581.66174316406
 30
0.0
 11
179.515563964844
 21
1581.66174316406
 31
0.0
  0
LINE
  5
F8
330
1F
100
AcDbEntity
  8
VISIBLE
100
AcDbLine
 10
358.015563964844
 20
1660.16174316406
 30
0.0
 11
358.015563964844
 21
1678.66174316406
 31
0.0
  0
LINE
  5
F9
330
1F
100
AcDbEntity
  8
VISIBLE
100
AcDbLine
 10
28.51556396484398
 20
1562.66174316406
 30
0.0
 11
31.51556396484398
 21
1562.66174316406
 31
0.0
  0
CIRCLE
  5
FA
330
1F
100
AcDbEntity
  8
VISIBLE
100
AcDbCircle
 10
379.515563964844
 20
1620.16174316406
 30
0.0
 40
2.0
  0
CIRCLE
  5
FB
330
1F
100
AcDbEntity
  8
VISIBLE
100
AcDbCircle
 10
99.51556396484398
 20
1700.16174316406
 30
0.0
 40
2.0
  0
LINE
  5
FC
330
1F
100
AcDbEntity
  8
VISIBLE
100
AcDbLine
 10
361.015563964844
 20
1481.66174316406
 30
0.0
 11
379.515563964844
 21
1481.66174316406
 31
0.0
  0
LINE
  5
FD
330
1F
100
AcDbEntity
  8
VISIBLE
100
AcDbLine
 10
158.015563964844
 20
1581.66174316406
 30
0.0
 11
158.015563964844
 21
1600.16174316406
 31
0.0
  0
CIRCLE
  5
FE
330
1F
100
AcDbEntity
  8
VISIBLE
100
AcDbCircle
 10
419.515563964844
 20
1500.16174316406
 30
0.0
 40
2.0
  0
LINE
  5
FF
330
1F
100
AcDbEntity
  8
VISIBLE
100
AcDbLine
 10
179.515563964844
 20
1578.66174316406
 30
0.0
 11
161.015563964844
 21
1578.66174316406
 31
0.0
  0
LINE
  5
100
330
1F
100
AcDbEntity
  8
VISIBLE
100
AcDbLine
 10
31.51556396484398
 20
1442.66174316406
 30
0.0
 11
28.51556396484398
 21
1442.66174316406
 31
0.0
  0
CIRCLE
  5
101
330
1F
100
AcDbEntity
  8
VISIBLE
100
AcDbCircle
 10
99.51556396484398
 20
1660.16174316406
 30
0.0
 40
2.0
  0
CIRCLE
  5
102
330
1F
100
AcDbEntity
  8
VISIBLE
100
AcDbCircle
 10
139.515563964844
 20
1740.16174316406
 30
0.0
 40
2.0
  0
CIRCLE
  5
103
330
1F
100
AcDbEntity
  8
VISIBLE
100
AcDbCircle
 10
99.51556396484398
 20
1540.16174316406
 30
0.0
 40
2.0
  0
LINE
  5
104
330
1F
100
AcDbEntity
  8
VISIBLE
100
AcDbLine
 10
28.51556396484398
 20
1422.66174316406
 30
0.0
 11
31.51556396484398
 21
1422.66174316406
 31
0.0
  0
LINE
  5
105
330
1F
100
AcDbEntity
  8
VISIBLE
100
AcDbLine
 10
487.515563964844
 20
1722.66174316406
 30
0.0
 11
487.515563964844
 21
1702.66174316406
 31
0.0
  0
LINE
  5
106
330
1F
100
AcDbEntity
  8
VISIBLE
100
AcDbLine
 10
484.515563964844
 20
1592.66174316406
 30
0.0
 11
495.515563964844
 21
1592.66174316406
 31
0.0
  0
LINE
  5
107
330
1F
100
AcDbEntity
  8
VISIBLE
100
AcDbLine
 10
484.515563964844
 20
1732.66174316406
 30
0.0
 11
495.515563964844
 21
1732.66174316406
 31
0.0
  0
CIRCLE
  5
108
330
1F
100
AcDbEntity
  8
VISIBLE
100
AcDbCircle
 10
379.515563964844
 20
1540.16174316406
 30
0.0
 40
2.0
  0
CIRCLE
  5
109
330
1F
100
AcDbEntity
  8
VISIBLE
100
AcDbCircle
 10
139.515563964844
 20
1420.16174316406
 30
0.0
 40
2.0
  0
CIRCLE
  5
10A
330
1F
100
AcDbEntity
  8
VISIBLE
100
AcDbCircle
 10
99.51556396484398
 20
1420.16174316406
 30
0.0
 40
2.0
  0
LINE
  5
10B
330
1F
100
AcDbEntity
  8
VISIBLE
100
AcDbLine
 10
484.515563964844
 20
1552.66174316406
 30
0.0
 11
484.515563964844
 21
1452.66174316406
 31
0.0
  0
LINE
  5
10C
330
1F
100
AcDbEntity
  8
VISIBLE
100
AcDbLine
 10
339.515563964844
 20
1481.66174316406
 30
0.0
 11
358.0155639648439
 21
1481.66174316406
 31
0.0
  0
LINE
  5
10D
330
1F
100
AcDbEntity
  8
VISIBLE
100
AcDbLine
 10
487.515563964844
 20
1422.66174316406
 30
0.0
 11
490.515563964844
 21
1422.66174316406
 31
0.0
  0
LINE
  5
10E
330
1F
100
AcDbEntity
  8
VISIBLE
100
AcDbLine
 10
379.515563964844
 20
1478.66174316406
 30
0.0
 11
361.015563964844
 21
1478.66174316406
 31
0.0
  0
LINE
  5
10F
330
1F
100
AcDbEntity
  8
VISIBLE
100
AcDbLine
 10
379.515563964844
 20
1578.66174316406
 30
0.0
 11
361.015563964844
 21
1578.66174316406
 31
0.0
  0
LINE
  5
110
330
1F
100
AcDbEntity
  8
VISIBLE
100
AcDbLine
 10
161.015563964844
 20
1681.66174316406
 30
0.0
 11
179.515563964844
 21
1681.66174316406
 31
0.0
  0
LINE
  5
111
330
1F
100
AcDbEntity
  8
VISIBLE
100
AcDbLine
 10
361.015563964844
 20
1478.66174316406
 30
0.0
 11
361.015563964844
 21
1460.16174316406
 31
0.0
  0
LINE
  5
112
330
1F
100
AcDbEntity
  8
VISIBLE
100
AcDbLine
 10
379.515563964844
 20
1681.66174316406
 30
0.0
 11
379.515563964844
 21
1678.66174316406
 31
0.0
  0
LINE
  5
113
330
1F
100
AcDbEntity
  8
VISIBLE
100
AcDbLine
 10
179.515563964844
 20
1478.66174316406
 30
0.0
 11
161.0155639648441
 21
1478.66174316406
 31
0.0
  0
LINE
  5
114
330
1F
100
AcDbEntity
  8
VISIBLE
100
AcDbLine
 10
139.515563964844
 20
1681.66174316406
 30
0.0
 11
158.015563964844
 21
1681.66174316406
 31
0.0
  0
LINE
  5
115
330
1F
100
AcDbEntity
  8
VISIBLE
100
AcDbLine
 10
339.5155639648439
 20
1578.66174316406
 30
0.0
 11
339.5155639648439
 21
1581.66174316406
 31
0.0
  0
LINE
  5
116
330
1F
100
AcDbEntity
  8
VISIBLE
100
AcDbLine
 10
361.015563964844
 20
1681.66174316406
 30
0.0
 11
379.515563964844
 21
1681.66174316406
 31
0.0
  0
LINE
  5
117
330
1F
100
AcDbEntity
  8
VISIBLE
100
AcDbLine
 10
361.015563964844
 20
1500.16174316406
 30
0.0
 11
361.015563964844
 21
1481.66174316406
 31
0.0
  0
CIRCLE
  5
118
330
1F
100
AcDbEntity
  8
VISIBLE
100
AcDbCircle
 10
299.515563964844
 20
1700.16174316406
 30
0.0
 40
2.0
  0
LINE
  5
119
330
1F
100
AcDbEntity
  8
VISIBLE
100
AcDbLine
 10
495.515563964844
 20
1412.66174316406
 30
0.0
 11
484.515563964844
 21
1412.66174316406
 31
0.0
  0
CIRCLE
  5
11A
330
1F
100
AcDbEntity
  8
VISIBLE
100
AcDbCircle
 10
299.515563964844
 20
1620.16174316406
 30
0.0
 40
2.0
  0
CIRCLE
  5
11B
330
1F
100
AcDbEntity
  8
VISIBLE
100
AcDbCircle
 10
179.515563964844
 20
1700.16174316406
 30
0.0
 40
2.0
  0
CIRCLE
  5
11C
330
1F
100
AcDbEntity
  8
VISIBLE
100
AcDbCircle
 10
379.515563964844
 20
1700.16174316406
 30
0.0
 40
2.0
  0
CIRCLE
  5
11D
330
1F
100
AcDbEntity
  8
VISIBLE
100
AcDbCircle
 10
419.515563964844
 20
1540.16174316406
 30
0.0
 40
2.0
  0
LINE
  5
11E
330
1F
100
AcDbEntity
  8
VISIBLE
100
AcDbLine
 10
32.20892333984398
 20
1307.17370605469
 30
0.0
 11
32.20892333984398
 21
1327.17370605469
 31
0.0
  0
LINE
  5
11F
330
1F
100
AcDbEntity
  8
VISIBLE
100
AcDbLine
 10
29.20892333984398
 20
1367.17370605469
 30
0.0
 11
32.20892333984398
 21
1367.17370605469
 31
0.0
  0
LINE
  5
120
330
1F
100
AcDbEntity
  8
VISIBLE
100
AcDbLine
 10
32.20892333984398
 20
1327.17370605469
 30
0.0
 11
29.20892333984398
 21
1327.17370605469
 31
0.0
  0
LINE
  5
121
330
1F
100
AcDbEntity
  8
VISIBLE
100
AcDbLine
 10
482.208923339844
 20
1307.17370605469
 30
0.0
 11
32.20892333984398
 21
1307.17370605469
 31
0.0
  0
LINE
  5
122
330
1F
100
AcDbEntity
  8
VISIBLE
100
AcDbLine
 10
485.208923339844
 20
1367.17370605469
 30
0.0
 11
485.208923339844
 21
1327.17370605469
 31
0.0
  0
CIRCLE
  5
123
330
1F
100
AcDbEntity
  8
VISIBLE
100
AcDbCircle
 10
367.208923339844
 20
1347.17370605469
 30
0.0
 40
15.0
  0
CIRCLE
  5
124
330
1F
100
AcDbEntity
  8
VISIBLE
100
AcDbCircle
 10
257.208923339844
 20
1347.17370605469
 30
0.0
 40
15.0
  0
LINE
  5
125
330
1F
100
AcDbEntity
  8
VISIBLE
100
AcDbLine
 10
32.20892333984398
 20
1387.17370605469
 30
0.0
 11
482.208923339844
 21
1387.17370605469
 31
0.0
  0
LINE
  5
126
330
1F
100
AcDbEntity
  8
VISIBLE
100
AcDbLine
 10
482.208923339844
 20
1367.17370605469
 30
0.0
 11
485.208923339844
 21
1367.17370605469
 31
0.0
  0
LINE
  5
127
330
1F
100
AcDbEntity
  8
VISIBLE
100
AcDbLine
 10
485.208923339844
 20
1327.17370605469
 30
0.0
 11
482.208923339844
 21
1327.17370605469
 31
0.0
  0
LINE
  5
128
330
1F
100
AcDbEntity
  8
VISIBLE
100
AcDbLine
 10
482.208923339844
 20
1387.17370605469
 30
0.0
 11
482.208923339844
 21
1367.17370605469
 31
0.0
  0
LINE
  5
129
330
1F
100
AcDbEntity
  8
VISIBLE
100
AcDbLine
 10
482.208923339844
 20
1327.17370605469
 30
0.0
 11
482.208923339844
 21
1307.17370605469
 31
0.0
  0
LINE
  5
12A
330
1F
100
AcDbEntity
  8
VISIBLE
100
AcDbLine
 10
32.20892333984398
 20
1367.17370605469
 30
0.0
 11
32.20892333984398
 21
1387.17370605469
 31
0.0
  0
CIRCLE
  5
12B
330
1F
100
AcDbEntity
  8
VISIBLE
100
AcDbCircle
 10
147.208923339844
 20
1347.17370605469
 30
0.0
 40
15.0
  0
LINE
  5
12C
330
1F
100
AcDbEntity
  8
VISIBLE
100
AcDbLine
 10
29.20892333984398
 20
1327.17370605469
 30
0.0
 11
29.20892333984398
 21
1367.17370605469
 31
0.0
  0
ARC
  5
12D
330
1F
100
AcDbEntity
  8
VISIBLE
100
AcDbCircle
 10
530.692149114754
 20
1858.887206544858
 30
0.0
 40
15.00000000000005
100
AcDbArc
 50
119.9999999999999
 51
184.9999999999998
  0
LINE
  5
12E
330
1F
100
AcDbEntity
  8
VISIBLE
100
AcDbLine
 10
684.1263256094637
 20
1638.259259251305
 30
0.0
 11
659.499866596439
 21
1669.779689395576
 31
0.0
  0
LINE
  5
12F
330
1F
100
AcDbEntity
  8
VISIBLE
100
AcDbLine
 10
558.689159031194
 20
1481.51135265066
 30
0.0
 11
555.202929321287
 21
1521.35914057433
 31
0.0
  0
LINE
  5
130
330
1F
100
AcDbEntity
  8
VISIBLE
100
AcDbLine
 10
772.6829644158709
 20
1529.784738172337
 30
0.0
 11
770.3189321550506
 21
1527.93775374636
 31
0.0
  0
LINE
  5
131
330
1F
100
AcDbEntity
  8
VISIBLE
100
AcDbLine
 10
686.490357870284
 20
1640.106243677282
 30
0.0
 11
684.1263256094637
 21
1638.259259251305
 31
0.0
  0
LINE
  5
132
330
1F
100
AcDbEntity
  8
VISIBLE
100
AcDbLine
 10
673.6599201967521
 20
1872.147655361733
 30
0.0
 11
653.6599201967529
 21
1906.788671513111
 31
0.0
  0
LINE
  5
133
330
1F
100
AcDbEntity
  8
VISIBLE
100
AcDbLine
 10
589.198395969686
 20
1898.439306607724
 30
0.0
 11
623.839412121064
 21
1918.439306607723
 31
0.0
  0
LINE
  5
134
330
1F
100
AcDbEntity
  8
VISIBLE
100
AcDbLine
 10
931.5160477145179
 20
1484.356099711681
 30
0.0
 11
934.399832802332
 21
1483.529187644231
 31
0.0
  0
CIRCLE
  5
135
330
1F
100
AcDbEntity
  8
VISIBLE
100
AcDbCircle
 10
944.739886098305
 20
1501.449462465975
 30
0.0
 40
5.0
  0
LINE
  5
136
330
1F
100
AcDbEntity
  8
VISIBLE
100
AcDbLine
 10
656.2579964081062
 20
1908.288671513111
 30
0.0
 11
676.2579964081053
 21
1873.647655361733
 31
0.0
  0
LINE
  5
137
330
1F
100
AcDbEntity
  8
VISIBLE
100
AcDbLine
 10
713.4203948196831
 20
1422.099560645568
 30
0.0
 11
713.4203948196831
 21
1425.099560645568
 31
0.0
  0
LINE
  5
138
330
1F
100
AcDbEntity
  8
VISIBLE
100
AcDbLine
 10
667.339412121063
 20
1843.095096478478
 30
0.0
 11
668.8394121210633
 21
1840.497020267124
 31
0.0
  0
LINE
  5
139
330
1F
100
AcDbEntity
  8
VISIBLE
100
AcDbLine
 10
558.191513415563
 20
1521.620607802573
 30
0.0
 11
561.677743125469
 21
1481.772819878903
 31
0.0
  0
LINE
  5
13A
330
1F
100
AcDbEntity
  8
VISIBLE
100
AcDbLine
 10
893.420394819683
 20
1422.099560645568
 30
0.0
 11
853.420394819683
 21
1422.099560645568
 31
0.0
  0
LINE
  5
13B
330
1F
100
AcDbEntity
  8
VISIBLE
100
AcDbLine
 10
625.339412121064
 20
1915.841230396371
 30
0.0
 11
590.698395969686
 21
1895.841230396371
 31
0.0
  0
LINE
  5
13C
330
1F
100
AcDbEntity
  8
VISIBLE
100
AcDbLine
 10
770.3189321550506
 20
1527.93775374636
 30
0.0
 11
745.6924731420258
 21
1559.45818389063
 31
0.0
  0
LINE
  5
13D
330
1F
100
AcDbEntity
  8
VISIBLE
100
AcDbLine
 10
713.4203948196831
 20
1425.099560645568
 30
0.0
 11
753.4203948196831
 21
1425.099560645568
 31
0.0
  0
LINE
  5
13E
330
1F
100
AcDbEntity
  8
VISIBLE
100
AcDbLine
 10
555.202929321287
 20
1521.35914057433
 30
0.0
 11
558.191513415563
 21
1521.620607802573
 31
0.0
  0
LINE
  5
13F
330
1F
100
AcDbEntity
  8
VISIBLE
100
AcDbLine
 10
853.420394819683
 20
1422.099560645568
 30
0.0
 11
853.420394819683
 21
1425.099560645568
 31
0.0
  0
LINE
  5
140
330
1F
100
AcDbEntity
  8
VISIBLE
100
AcDbLine
 10
573.420394819683
 20
1422.099560645568
 30
0.0
 11
573.420394819683
 21
1425.099560645568
 31
0.0
  0
LINE
  5
141
330
1F
100
AcDbEntity
  8
VISIBLE
100
AcDbLine
 10
745.6924731420258
 20
1559.45818389063
 30
0.0
 11
748.056505402846
 21
1561.305168316607
 31
0.0
  0
LINE
  5
142
330
1F
100
AcDbEntity
  8
VISIBLE
100
AcDbLine
 10
573.3072600508519
 20
1780.101194900521
 30
0.0
 11
575.671292311672
 21
1781.948179326498
 31
0.0
  0
LINE
  5
143
330
1F
100
AcDbEntity
  8
VISIBLE
100
AcDbLine
 10
862.287441152925
 20
1527.663761153172
 30
0.0
 11
946.2185698002681
 21
1511.349202420424
 31
0.0
  0
LINE
  5
144
330
1F
100
AcDbEntity
  8
VISIBLE
100
AcDbLine
 10
676.2579964081053
 20
1873.647655361733
 30
0.0
 11
673.6599201967521
 21
1872.147655361733
 31
0.0
  0
LINE
  5
145
330
1F
100
AcDbEntity
  8
VISIBLE
100
AcDbLine
 10
893.420394819683
 20
1425.099560645568
 30
0.0
 11
893.420394819683
 21
1422.099560645568
 31
0.0
  0
LINE
  5
146
330
1F
100
AcDbEntity
  8
VISIBLE
100
AcDbLine
 10
623.8394121210639
 20
1918.439306607723
 30
0.0
 11
625.339412121064
 21
1915.841230396371
 31
0.0
  0
LINE
  5
147
330
1F
100
AcDbEntity
  8
VISIBLE
100
AcDbLine
 10
748.056505402846
 20
1561.305168316607
 30
0.0
 11
772.6829644158709
 21
1529.784738172337
 31
0.0
  0
ARC
  5
148
330
1F
100
AcDbEntity
  8
VISIBLE
100
AcDbCircle
 10
923.4203948196831
 20
1427.099560645568
 30
0.0
 40
15.0
100
AcDbArc
 50
270.0
 51
344.0000000000002
  0
LINE
  5
149
330
1F
100
AcDbEntity
  8
VISIBLE
100
AcDbLine
 10
575.671292311672
 20
1781.948179326498
 30
0.0
 11
600.297751324697
 21
1750.427749182228
 31
0.0
  0
LINE
  5
14A
330
1F
100
AcDbEntity
  8
VISIBLE
100
AcDbLine
 10
634.198395969686
 20
1820.497020267125
 30
0.0
 11
632.698395969686
 21
1823.095096478479
 31
0.0
  0
LINE
  5
14B
330
1F
100
AcDbEntity
  8
VISIBLE
100
AcDbLine
 10
549.4812136305919
 20
1621.240539069811
 30
0.0
 11
546.4926295363159
 21
1620.979071841568
 31
0.0
  0
LINE
  5
14C
330
1F
100
AcDbEntity
  8
VISIBLE
100
AcDbLine
 10
753.4203948196831
 20
1422.099560645568
 30
0.0
 11
713.4203948196831
 21
1422.099560645568
 31
0.0
  0
LINE
  5
14D
330
1F
100
AcDbEntity
  8
VISIBLE
100
AcDbLine
 10
653.6599201967529
 20
1906.788671513111
 30
0.0
 11
656.2579964081061
 21
1908.288671513111
 31
0.0
  0
CIRCLE
  5
14E
330
1F
100
AcDbEntity
  8
VISIBLE
100
AcDbCircle
 10
806.2865076961292
 20
1472.099560645568
 30
0.0
 40
15.0
  0
ARC
  5
14F
330
1F
100
AcDbEntity
  8
VISIBLE
100
AcDbCircle
 10
656.6503012535192
 20
1931.609179588801
 30
0.0
 40
14.99999999999995
100
AcDbArc
 50
30.00000000000011
 51
119.9999999999999
  0
LINE
  5
150
330
1F
100
AcDbEntity
  8
VISIBLE
100
AcDbLine
 10
853.420394819683
 20
1425.099560645568
 30
0.0
 11
893.420394819683
 21
1425.099560645568
 31
0.0
  0
LINE
  5
151
330
1F
100
AcDbEntity
  8
VISIBLE
100
AcDbLine
 10
820.4303325117431
 20
1521.028566793605
 30
0.0
 11
781.1652451738366
 21
1528.660926608667
 31
0.0
  0
LINE
  5
152
330
1F
100
AcDbEntity
  8
VISIBLE
100
AcDbLine
 10
753.4203948196831
 20
1425.099560645568
 30
0.0
 11
753.4203948196831
 21
1422.099560645568
 31
0.0
  0
LINE
  5
153
330
1F
100
AcDbEntity
  8
VISIBLE
100
AcDbLine
 10
590.698395969686
 20
1895.841230396371
 30
0.0
 11
589.198395969686
 21
1898.439306607724
 31
0.0
  0
LINE
  5
154
330
1F
100
AcDbEntity
  8
VISIBLE
100
AcDbLine
 10
923.4203948196831
 20
1412.099560645568
 30
0.0
 11
568.4686731814863
 21
1412.099560645568
 31
0.0
  0
LINE
  5
155
330
1F
100
AcDbEntity
  8
VISIBLE
100
AcDbLine
 10
668.8394121210633
 20
1840.497020267124
 30
0.0
 11
634.198395969686
 21
1820.497020267125
 31
0.0
  0
LINE
  5
156
330
1F
100
AcDbEntity
  8
VISIBLE
100
AcDbLine
 10
561.6777431254691
 20
1481.772819878903
 30
0.0
 11
558.689159031194
 21
1481.51135265066
 31
0.0
  0
LINE
  5
157
330
1F
100
AcDbEntity
  8
VISIBLE
100
AcDbLine
 10
553.5257527101102
 20
1425.792224504353
 30
0.0
 11
515.7492286433778
 21
1857.579870403643
 31
0.0
  0
LINE
  5
158
330
1F
100
AcDbEntity
  8
VISIBLE
100
AcDbLine
 10
934.399832802332
 20
1483.529187644231
 30
0.0
 11
923.374338569653
 21
1445.078719806698
 31
0.0
  0
LINE
  5
159
330
1F
100
AcDbEntity
  8
VISIBLE
100
AcDbLine
 10
659.499866596439
 20
1669.779689395576
 30
0.0
 11
661.8638988572592
 21
1671.626673821552
 31
0.0
  0
LINE
  5
15A
330
1F
100
AcDbEntity
  8
VISIBLE
100
AcDbLine
 10
597.933719063877
 20
1748.580764756251
 30
0.0
 11
573.307260050852
 21
1780.101194900521
 31
0.0
  0
LINE
  5
15B
330
1F
100
AcDbEntity
  8
VISIBLE
100
AcDbLine
 10
545.994983920686
 20
1661.08832699348
 30
0.0
 11
549.4812136305919
 21
1621.240539069811
 31
0.0
  0
LINE
  5
15C
330
1F
100
AcDbEntity
  8
VISIBLE
100
AcDbLine
 10
523.192149114754
 20
1871.877587601624
 30
0.0
 11
649.1503012535192
 21
1944.599560645568
 31
0.0
  0
LINE
  5
15D
330
1F
100
AcDbEntity
  8
VISIBLE
100
AcDbLine
 10
573.420394819683
 20
1425.099560645568
 30
0.0
 11
613.420394819683
 21
1425.099560645568
 31
0.0
  0
LINE
  5
15E
330
1F
100
AcDbEntity
  8
VISIBLE
100
AcDbLine
 10
923.374338569653
 20
1445.078719806697
 30
0.0
 11
920.490553481838
 21
1445.905631874148
 31
0.0
  0
ARC
  5
15F
330
1F
100
AcDbEntity
  8
VISIBLE
100
AcDbCircle
 10
568.4686731814863
 20
1427.099560645568
 30
0.0
 40
14.99999999999998
100
AcDbArc
 50
184.9999999999998
 51
270.0
  0
LINE
  5
160
330
1F
100
AcDbEntity
  8
VISIBLE
100
AcDbLine
 10
543.00639982641
 20
1660.826859765238
 30
0.0
 11
545.994983920686
 21
1661.08832699348
 31
0.0
  0
LINE
  5
161
330
1F
100
AcDbEntity
  8
VISIBLE
100
AcDbLine
 10
957.7753603086948
 20
1492.490234331454
 30
0.0
 11
937.8393202587579
 21
1422.965000308313
 31
0.0
  0
LINE
  5
162
330
1F
100
AcDbEntity
  8
VISIBLE
100
AcDbLine
 10
613.420394819683
 20
1422.099560645568
 30
0.0
 11
573.420394819683
 21
1422.099560645568
 31
0.0
  0
LINE
  5
163
330
1F
100
AcDbEntity
  8
VISIBLE
100
AcDbLine
 10
600.297751324697
 20
1750.427749182228
 30
0.0
 11
597.933719063877
 21
1748.580764756251
 31
0.0
  0
ARC
  5
164
330
1F
100
AcDbEntity
  8
VISIBLE
100
AcDbCircle
 10
943.35643486962
 20
1496.624794668709
 30
0.0
 40
15.00000000000003
100
AcDbArc
 50
343.9999999999994
 51
78.99999999999996
  0
LINE
  5
165
330
1F
100
AcDbEntity
  8
VISIBLE
100
AcDbLine
 10
821.0027594978728
 20
1523.973448343948
 30
0.0
 11
820.4303325117431
 21
1521.028566793605
 31
0.0
  0
LINE
  5
166
330
1F
100
AcDbEntity
  8
VISIBLE
100
AcDbLine
 10
613.420394819683
 20
1425.099560645568
 30
0.0
 11
613.420394819683
 21
1422.099560645568
 31
0.0
  0
LINE
  5
167
330
1F
100
AcDbEntity
  8
VISIBLE
100
AcDbLine
 10
920.490553481838
 20
1445.905631874148
 30
0.0
 11
931.516047714518
 21
1484.356099711681
 31
0.0
  0
LINE
  5
168
330
1F
100
AcDbEntity
  8
VISIBLE
100
AcDbLine
 10
546.4926295363159
 20
1620.979071841568
 30
0.0
 11
543.00639982641
 21
1660.826859765238
 31
0.0
  0
LINE
  5
169
330
1F
100
AcDbEntity
  8
VISIBLE
100
AcDbLine
 10
534.290825551646
 20
1760.446329574412
 30
0.0
 11
530.804595841739
 21
1800.294117498082
 31
0.0
  0
LINE
  5
16A
330
1F
100
AcDbEntity
  8
VISIBLE
100
AcDbLine
 10
781.7376721599662
 20
1531.60580815901
 30
0.0
 11
821.0027594978728
 21
1523.973448343948
 31
0.0
  0
LINE
  5
16B
330
1F
100
AcDbEntity
  8
VISIBLE
100
AcDbLine
 10
781.1652451738366
 20
1528.660926608667
 30
0.0
 11
781.7376721599662
 21
1531.60580815901
 31
0.0
  0
LINE
  5
16C
330
1F
100
AcDbEntity
  8
VISIBLE
100
AcDbLine
 10
661.8638988572592
 20
1671.626673821552
 30
0.0
 11
686.490357870284
 21
1640.106243677282
 31
0.0
  0
ARC
  5
16D
330
1F
100
AcDbEntity
  8
VISIBLE
100
AcDbCircle
 10
903.4614472606789
 20
1739.485659628403
 30
0.0
 40
215.7865043338264
100
AcDbArc
 50
148.4149959777276
 51
258.9999999999999
  0
LINE
  5
16E
330
1F
100
AcDbEntity
  8
VISIBLE
100
AcDbLine
 10
632.698395969686
 20
1823.095096478479
 30
0.0
 11
667.339412121063
 21
1843.095096478478
 31
0.0
  0
LINE
  5
16F
330
1F
100
AcDbEntity
  8
VISIBLE
100
AcDbLine
 10
537.2794096459199
 20
1760.707796802655
 30
0.0
 11
534.290825551646
 21
1760.446329574412
 31
0.0
  0
LINE
  5
170
330
1F
100
AcDbEntity
  8
VISIBLE
100
AcDbLine
 10
669.6406823102857
 20
1939.109179588801
 30
0.0
 11
719.6406823102855
 21
1852.506639210357
 31
0.0
  0
LINE
  5
171
330
1F
100
AcDbEntity
  8
VISIBLE
100
AcDbLine
 10
530.804595841739
 20
1800.294117498082
 30
0.0
 11
533.793179936014
 21
1800.555584726325
 31
0.0
  0
LINE
  5
172
330
1F
100
AcDbEntity
  8
VISIBLE
100
AcDbLine
 10
533.793179936014
 20
1800.555584726325
 30
0.0
 11
537.2794096459199
 21
1760.707796802655
 31
0.0
  0
LINE
  5
173
330
1F
100
AcDbEntity
  8
VISIBLE
100
AcDbLine
 10
1331.48706054688
 20
1879.23876953125
 30
0.0
 11
1331.48706054688
 21
1897.73876953125
 31
0.0
  0
LINE
  5
174
330
1F
100
AcDbEntity
  8
VISIBLE
100
AcDbLine
 10
1134.48706054688
 20
1897.73876953125
 30
0.0
 11
1134.48706054688
 21
1879.23876953125
 31
0.0
  0
LINE
  5
175
330
1F
100
AcDbEntity
  8
VISIBLE
100
AcDbLine
 10
996.98706054688
 20
1889.23876953125
 30
0.0
 11
1007.98706054688
 21
1889.23876953125
 31
0.0
  0
LINE
  5
176
330
1F
100
AcDbEntity
  8
VISIBLE
100
AcDbLine
 10
1131.48706054688
 20
1857.73876953125
 30
0.0
 11
1131.48706054688
 21
1876.23876953125
 31
0.0
  0
LINE
  5
177
330
1F
100
AcDbEntity
  8
VISIBLE
100
AcDbLine
 10
1460.98706054688
 20
1919.23876953125
 30
0.0
 11
1463.98706054688
 21
1919.23876953125
 31
0.0
  0
LINE
  5
178
330
1F
100
AcDbEntity
  8
VISIBLE
100
AcDbLine
 10
1457.98706054688
 20
1929.23876953125
 30
0.0
 11
1468.98706054688
 21
1929.23876953125
 31
0.0
  0
LINE
  5
179
330
1F
100
AcDbEntity
  8
VISIBLE
100
AcDbLine
 10
1252.98706054688
 20
1949.23876953125
 30
0.0
 11
1212.98706054688
 21
1949.23876953125
 31
0.0
  0
LINE
  5
17A
330
1F
100
AcDbEntity
  8
VISIBLE
100
AcDbLine
 10
1457.98706054688
 20
1889.23876953125
 30
0.0
 11
1457.98706054688
 21
1809.23876953125
 31
0.0
  0
LINE
  5
17B
330
1F
100
AcDbEntity
  8
VISIBLE
100
AcDbLine
 10
1134.48706054688
 20
1876.23876953125
 30
0.0
 11
1134.48706054688
 21
1857.73876953125
 31
0.0
  0
LINE
  5
17C
330
1F
100
AcDbEntity
  8
VISIBLE
100
AcDbLine
 10
1007.98706054688
 20
1809.23876953125
 30
0.0
 11
1007.98706054688
 21
1889.23876953125
 31
0.0
  0
LINE
  5
17D
330
1F
100
AcDbEntity
  8
VISIBLE
100
AcDbLine
 10
1334.48706054688
 20
1897.73876953125
 30
0.0
 11
1334.48706054688
 21
1879.23876953125
 31
0.0
  0
LINE
  5
17E
330
1F
100
AcDbEntity
  8
VISIBLE
100
AcDbLine
 10
1212.98706054688
 20
1949.23876953125
 30
0.0
 11
1212.98706054688
 21
1946.23876953125
 31
0.0
  0
LINE
  5
17F
330
1F
100
AcDbEntity
  8
VISIBLE
100
AcDbLine
 10
1134.48706054688
 20
1857.73876953125
 30
0.0
 11
1131.48706054688
 21
1857.73876953125
 31
0.0
  0
LINE
  5
180
330
1F
100
AcDbEntity
  8
VISIBLE
100
AcDbLine
 10
1312.98706054688
 20
1879.23876953125
 30
0.0
 11
1331.48706054688
 21
1879.23876953125
 31
0.0
  0
LINE
  5
181
330
1F
100
AcDbEntity
  8
VISIBLE
100
AcDbLine
 10
1007.98706054688
 20
1929.23876953125
 30
0.0
 11
996.98706054688
 21
1929.23876953125
 31
0.0
  0
LINE
  5
182
330
1F
100
AcDbEntity
  8
VISIBLE
100
AcDbLine
 10
1312.98706054688
 20
1876.23876953125
 30
0.0
 11
1312.98706054688
 21
1879.23876953125
 31
0.0
  0
LINE
  5
183
330
1F
100
AcDbEntity
  8
VISIBLE
100
AcDbLine
 10
1152.98706054688
 20
1879.23876953125
 30
0.0
 11
1152.98706054688
 21
1876.23876953125
 31
0.0
  0
LINE
  5
184
330
1F
100
AcDbEntity
  8
VISIBLE
100
AcDbLine
 10
1463.98706054688
 20
1919.23876953125
 30
0.0
 11
1463.98706054688
 21
1899.23876953125
 31
0.0
  0
LINE
  5
185
330
1F
100
AcDbEntity
  8
VISIBLE
100
AcDbLine
 10
1152.98706054688
 20
1876.23876953125
 30
0.0
 11
1134.48706054688
 21
1876.23876953125
 31
0.0
  0
LINE
  5
186
330
1F
100
AcDbEntity
  8
VISIBLE
100
AcDbLine
 10
1334.48706054688
 20
1857.73876953125
 30
0.0
 11
1331.48706054688
 21
1857.73876953125
 31
0.0
  0
LINE
  5
187
330
1F
100
AcDbEntity
  8
VISIBLE
100
AcDbLine
 10
1131.48706054688
 20
1876.23876953125
 30
0.0
 11
1112.98706054688
 21
1876.23876953125
 31
0.0
  0
LINE
  5
188
330
1F
100
AcDbEntity
  8
VISIBLE
100
AcDbLine
 10
1112.98706054688
 20
1879.23876953125
 30
0.0
 11
1131.48706054688
 21
1879.23876953125
 31
0.0
  0
LINE
  5
189
330
1F
100
AcDbEntity
  8
VISIBLE
100
AcDbLine
 10
1352.98706054688
 20
1876.23876953125
 30
0.0
 11
1334.48706054688
 21
1876.23876953125
 31
0.0
  0
LINE
  5
18A
330
1F
100
AcDbEntity
  8
VISIBLE
100
AcDbLine
 10
1463.98706054688
 20
1899.23876953125
 30
0.0
 11
1460.98706054688
 21
1899.23876953125
 31
0.0
  0
LINE
  5
18B
330
1F
100
AcDbEntity
  8
VISIBLE
100
AcDbLine
 10
1004.98706054688
 20
1919.23876953125
 30
0.0
 11
1001.98706054688
 21
1919.23876953125
 31
0.0
  0
LINE
  5
18C
330
1F
100
AcDbEntity
  8
VISIBLE
100
AcDbLine
 10
1252.98706054688
 20
1946.23876953125
 30
0.0
 11
1457.98706054688
 21
1946.23876953125
 31
0.0
  0
LINE
  5
18D
330
1F
100
AcDbEntity
  8
VISIBLE
100
AcDbLine
 10
1004.98706054688
 20
1899.23876953125
 30
0.0
 11
1004.98706054688
 21
1919.23876953125
 31
0.0
  0
LINE
  5
18E
330
1F
100
AcDbEntity
  8
VISIBLE
100
AcDbLine
 10
1001.98706054688
 20
1899.23876953125
 30
0.0
 11
1004.98706054688
 21
1899.23876953125
 31
0.0
  0
LINE
  5
18F
330
1F
100
AcDbEntity
  8
VISIBLE
100
AcDbLine
 10
1352.98706054688
 20
1879.23876953125
 30
0.0
 11
1352.98706054688
 21
1876.23876953125
 31
0.0
  0
LINE
  5
190
330
1F
100
AcDbEntity
  8
VISIBLE
100
AcDbLine
 10
1007.98706054688
 20
1946.23876953125
 30
0.0
 11
1212.98706054688
 21
1946.23876953125
 31
0.0
  0
LINE
  5
191
330
1F
100
AcDbEntity
  8
VISIBLE
100
AcDbLine
 10
1134.48706054688
 20
1879.23876953125
 30
0.0
 11
1152.98706054688
 21
1879.23876953125
 31
0.0
  0
LINE
  5
192
330
1F
100
AcDbEntity
  8
VISIBLE
100
AcDbLine
 10
1468.98706054688
 20
1929.23876953125
 30
0.0
 11
1468.98706054688
 21
1889.23876953125
 31
0.0
  0
LINE
  5
193
330
1F
100
AcDbEntity
  8
VISIBLE
100
AcDbLine
 10
1460.98706054688
 20
1899.23876953125
 30
0.0
 11
1460.98706054688
 21
1919.23876953125
 31
0.0
  0
LINE
  5
194
330
1F
100
AcDbEntity
  8
VISIBLE
100
AcDbLine
 10
1457.98706054688
 20
1809.23876953125
 30
0.0
 11
1007.98706054688
 21
1809.23876953125
 31
0.0
  0
LINE
  5
195
330
1F
100
AcDbEntity
  8
VISIBLE
100
AcDbLine
 10
1334.48706054688
 20
1876.23876953125
 30
0.0
 11
1334.48706054688
 21
1857.73876953125
 31
0.0
  0
LINE
  5
196
330
1F
100
AcDbEntity
  8
VISIBLE
100
AcDbLine
 10
1131.48706054688
 20
1897.73876953125
 30
0.0
 11
1134.48706054688
 21
1897.73876953125
 31
0.0
  0
LINE
  5
197
330
1F
100
AcDbEntity
  8
VISIBLE
100
AcDbLine
 10
1007.98706054688
 20
1929.23876953125
 30
0.0
 11
1007.98706054688
 21
1946.23876953125
 31
0.0
  0
LINE
  5
198
330
1F
100
AcDbEntity
  8
VISIBLE
100
AcDbLine
 10
1468.98706054688
 20
1889.23876953125
 30
0.0
 11
1457.98706054688
 21
1889.23876953125
 31
0.0
  0
LINE
  5
199
330
1F
100
AcDbEntity
  8
VISIBLE
100
AcDbLine
 10
1331.48706054688
 20
1897.73876953125
 30
0.0
 11
1334.48706054688
 21
1897.73876953125
 31
0.0
  0
LINE
  5
19A
330
1F
100
AcDbEntity
  8
VISIBLE
100
AcDbLine
 10
1001.98706054688
 20
1919.23876953125
 30
0.0
 11
1001.98706054688
 21
1899.23876953125
 31
0.0
  0
LINE
  5
19B
330
1F
100
AcDbEntity
  8
VISIBLE
100
AcDbLine
 10
1112.98706054688
 20
1876.23876953125
 30
0.0
 11
1112.98706054688
 21
1879.23876953125
 31
0.0
  0
LINE
  5
19C
330
1F
100
AcDbEntity
  8
VISIBLE
100
AcDbLine
 10
1131.48706054688
 20
1879.23876953125
 30
0.0
 11
1131.48706054688
 21
1897.73876953125
 31
0.0
  0
LINE
  5
19D
330
1F
100
AcDbEntity
  8
VISIBLE
100
AcDbLine
 10
1331.48706054688
 20
1876.23876953125
 30
0.0
 11
1312.98706054688
 21
1876.23876953125
 31
0.0
  0
LINE
  5
19E
330
1F
100
AcDbEntity
  8
VISIBLE
100
AcDbLine
 10
996.98706054688
 20
1929.23876953125
 30
0.0
 11
996.98706054688
 21
1889.23876953125
 31
0.0
  0
LINE
  5
19F
330
1F
100
AcDbEntity
  8
VISIBLE
100
AcDbLine
 10
1334.48706054688
 20
1879.23876953125
 30
0.0
 11
1352.98706054688
 21
1879.23876953125
 31
0.0
  0
LINE
  5
1A0
330
1F
100
AcDbEntity
  8
VISIBLE
100
AcDbLine
 10
1457.98706054688
 20
1946.23876953125
 30
0.0
 11
1457.98706054688
 21
1929.23876953125
 31
0.0
  0
LINE
  5
1A1
330
1F
100
AcDbEntity
  8
VISIBLE
100
AcDbLine
 10
1252.98706054688
 20
1946.23876953125
 30
0.0
 11
1252.98706054688
 21
1949.23876953125
 31
0.0
  0
LINE
  5
1A2
330
1F
100
AcDbEntity
  8
VISIBLE
100
AcDbLine
 10
1331.48706054688
 20
1857.73876953125
 30
0.0
 11
1331.48706054688
 21
1876.23876953125
 31
0.0
  0
LINE
  5
1A3
330
1F
100
AcDbEntity
  8
VISIBLE
100
AcDbLine
 10
1005.68029785156
 20
1798.17163085938
 30
0.0
 11
1455.68029785156
 21
1798.17163085938
 31
0.0
  0
LINE
  5
1A4
330
1F
100
AcDbEntity
  8
VISIBLE
100
AcDbLine
 10
1135.68029785156
 20
1705.17163085938
 30
0.0
 11
1135.68029785156
 21
1708.17163085938
 31
0.0
  0
LINE
  5
1A5
330
1F
100
AcDbEntity
  8
VISIBLE
100
AcDbLine
 10
1005.68029785156
 20
1708.17163085938
 30
0.0
 11
1005.68029785156
 21
1798.17163085938
 31
0.0
  0
LINE
  5
1A6
330
1F
100
AcDbEntity
  8
VISIBLE
100
AcDbLine
 10
1455.68029785156
 20
1708.17163085938
 30
0.0
 11
1365.68029785156
 21
1708.17163085938
 31
0.0
  0
LINE
  5
1A7
330
1F
100
AcDbEntity
  8
VISIBLE
100
AcDbLine
 10
1325.68029785156
 20
1705.17163085938
 30
0.0
 11
1325.68029785156
 21
1708.17163085938
 31
0.0
  0
LINE
  5
1A8
330
1F
100
AcDbEntity
  8
VISIBLE
100
AcDbLine
 10
1365.68029785156
 20
1705.17163085938
 30
0.0
 11
1325.68029785156
 21
1705.17163085938
 31
0.0
  0
LINE
  5
1A9
330
1F
100
AcDbEntity
  8
VISIBLE
100
AcDbLine
 10
1250.68029785156
 20
1795.17163085938
 30
0.0
 11
1250.68029785156
 21
1792.17163085938
 31
0.0
  0
LINE
  5
1AA
330
1F
100
AcDbEntity
  8
VISIBLE
100
AcDbLine
 10
1365.68029785156
 20
1708.17163085938
 30
0.0
 11
1365.68029785156
 21
1705.17163085938
 31
0.0
  0
LINE
  5
1AB
330
1F
100
AcDbEntity
  8
VISIBLE
100
AcDbLine
 10
1250.68029785156
 20
1792.17163085938
 30
0.0
 11
1210.68029785156
 21
1792.17163085938
 31
0.0
  0
LINE
  5
1AC
330
1F
100
AcDbEntity
  8
VISIBLE
100
AcDbLine
 10
1210.68029785156
 20
1795.17163085938
 30
0.0
 11
1250.68029785156
 21
1795.17163085938
 31
0.0
  0
LINE
  5
1AD
330
1F
100
AcDbEntity
  8
VISIBLE
100
AcDbLine
 10
1325.68029785156
 20
1708.17163085938
 30
0.0
 11
1135.68029785156
 21
1708.17163085938
 31
0.0
  0
LINE
  5
1AE
330
1F
100
AcDbEntity
  8
VISIBLE
100
AcDbLine
 10
1095.68029785156
 20
1708.17163085938
 30
0.0
 11
1095.68029785156
 21
1705.17163085938
 31
0.0
  0
LINE
  5
1AF
330
1F
100
AcDbEntity
  8
VISIBLE
100
AcDbLine
 10
1210.68029785156
 20
1792.17163085938
 30
0.0
 11
1210.68029785156
 21
1795.17163085938
 31
0.0
  0
LINE
  5
1B0
330
1F
100
AcDbEntity
  8
VISIBLE
100
AcDbLine
 10
1095.68029785156
 20
1705.17163085938
 30
0.0
 11
1135.68029785156
 21
1705.17163085938
 31
0.0
  0
LINE
  5
1B1
330
1F
100
AcDbEntity
  8
VISIBLE
100
AcDbLine
 10
1095.68029785156
 20
1708.17163085938
 30
0.0
 11
1005.68029785156
 21
1708.17163085938
 31
0.0
  0
LINE
  5
1B2
330
1F
100
AcDbEntity
  8
VISIBLE
100
AcDbLine
 10
1455.68029785156
 20
1798.17163085938
 30
0.0
 11
1455.68029785156
 21
1708.17163085938
 31
0.0
  0
CIRCLE
  5
1B3
330
1F
100
AcDbEntity
  8
VISIBLE
100
AcDbCircle
 10
1363.599204156254
 20
1640.992360799502
 30
0.0
 40
2.0
  0
LINE
  5
1B4
330
1F
100
AcDbEntity
  8
VISIBLE
100
AcDbLine
 10
1456.37377929688
 20
1674.79772949219
 30
0.0
 11
1456.37377929688
 21
1634.79772949219
 31
0.0
  0
CIRCLE
  5
1B5
330
1F
100
AcDbEntity
  8
VISIBLE
100
AcDbCircle
 10
1351.099204156254
 20
1602.521316584811
 30
0.0
 40
2.0
  0
LINE
  5
1B6
330
1F
100
AcDbEntity
  8
VISIBLE
100
AcDbLine
 10
1003.37377929688
 20
1697.79772949219
 30
0.0
 11
1453.37377929688
 21
1697.79772949219
 31
0.0
  0
LINE
  5
1B7
330
1F
100
AcDbEntity
  8
VISIBLE
100
AcDbLine
 10
1453.37377929688
 20
1554.79772949219
 30
0.0
 11
1003.37377929688
 21
1554.79772949219
 31
0.0
  0
LINE
  5
1B8
330
1F
100
AcDbEntity
  8
VISIBLE
100
AcDbLine
 10
1453.37377929688
 20
1674.79772949219
 30
0.0
 11
1456.37377929688
 21
1674.79772949219
 31
0.0
  0
CIRCLE
  5
1B9
330
1F
100
AcDbEntity
  8
VISIBLE
100
AcDbCircle
 10
1348.37377929688
 20
1617.637475454346
 30
0.0
 40
2.0
  0
LINE
  5
1BA
330
1F
100
AcDbEntity
  8
VISIBLE
100
AcDbLine
 10
1323.37377929688
 20
1691.79772949219
 30
0.0
 11
1323.37377929688
 21
1694.79772949219
 31
0.0
  0
LINE
  5
1BB
330
1F
100
AcDbEntity
  8
VISIBLE
100
AcDbLine
 10
1323.37377929688
 20
1694.79772949219
 30
0.0
 11
1363.37377929688
 21
1694.79772949219
 31
0.0
  0
CIRCLE
  5
1BC
330
1F
100
AcDbEntity
  8
VISIBLE
100
AcDbCircle
 10
1338.37377929688
 20
1634.957983530034
 30
0.0
 40
2.0
  0
CIRCLE
  5
1BD
330
1F
100
AcDbEntity
  8
VISIBLE
100
AcDbCircle
 10
1088.37377929688
 20
1626.29772949219
 30
0.0
 40
2.0
  0
LINE
  5
1BE
330
1F
100
AcDbEntity
  8
VISIBLE
100
AcDbLine
 10
1003.37377929688
 20
1554.79772949219
 30
0.0
 11
1003.37377929688
 21
1634.79772949219
 31
0.0
  0
LINE
  5
1BF
330
1F
100
AcDbEntity
  8
VISIBLE
100
AcDbLine
 10
1456.37377929688
 20
1634.79772949219
 30
0.0
 11
1453.37377929688
 21
1634.79772949219
 31
0.0
  0
CIRCLE
  5
1C0
330
1F
100
AcDbEntity
  8
VISIBLE
100
AcDbCircle
 10
1335.648354437506
 20
1650.074142399569
 30
0.0
 40
2.0
  0
LINE
  5
1C1
330
1F
100
AcDbEntity
  8
VISIBLE
100
AcDbLine
 10
1093.37377929688
 20
1694.79772949219
 30
0.0
 11
1133.37377929688
 21
1694.79772949219
 31
0.0
  0
LINE
  5
1C2
330
1F
100
AcDbEntity
  8
VISIBLE
100
AcDbLine
 10
1000.37377929688
 20
1674.79772949219
 30
0.0
 11
1000.37377929688
 21
1634.79772949219
 31
0.0
  0
LINE
  5
1C3
330
1F
100
AcDbEntity
  8
VISIBLE
100
AcDbLine
 10
1093.37377929688
 20
1691.79772949219
 30
0.0
 11
1093.37377929688
 21
1694.79772949219
 31
0.0
  0
LINE
  5
1C4
330
1F
100
AcDbEntity
  8
VISIBLE
100
AcDbLine
 10
1003.37377929688
 20
1674.79772949219
 30
0.0
 11
1000.37377929688
 21
1674.79772949219
 31
0.0
  0
LINE
  5
1C5
330
1F
100
AcDbEntity
  8
VISIBLE
100
AcDbLine
 10
1453.37377929688
 20
1634.79772949219
 30
0.0
 11
1453.37377929688
 21
1554.79772949219
 31
0.0
  0
CIRCLE
  5
1C6
330
1F
100
AcDbEntity
  8
VISIBLE
100
AcDbCircle
 10
1368.37377929688
 20
1626.29772949219
 30
0.0
 40
2.0
  0
CIRCLE
  5
1C7
330
1F
100
AcDbEntity
  8
VISIBLE
100
AcDbCircle
 10
1108.37377929688
 20
1634.957983530034
 30
0.0
 40
2.0
  0
CIRCLE
  5
1C8
330
1F
100
AcDbEntity
  8
VISIBLE
100
AcDbCircle
 10
1351.099204156254
 20
1650.074142399569
 30
0.0
 40
2.0
  0
CIRCLE
  5
1C9
330
1F
100
AcDbEntity
  8
VISIBLE
100
AcDbCircle
 10
1118.37377929688
 20
1634.957983530034
 30
0.0
 40
2.0
  0
LINE
  5
1CA
330
1F
100
AcDbEntity
  8
VISIBLE
100
AcDbLine
 10
1003.37377929688
 20
1674.79772949219
 30
0.0
 11
1003.37377929688
 21
1697.79772949219
 31
0.0
  0
CIRCLE
  5
1CB
330
1F
100
AcDbEntity
  8
VISIBLE
100
AcDbCircle
 10
1335.648354437506
 20
1602.521316584811
 30
0.0
 40
2.0
  0
CIRCLE
  5
1CC
330
1F
100
AcDbEntity
  8
VISIBLE
100
AcDbCircle
 10
1318.37377929688
 20
1626.29772949219
 30
0.0
 40
2.0
  0
CIRCLE
  5
1CD
330
1F
100
AcDbEntity
  8
VISIBLE
100
AcDbCircle
 10
1105.648354437506
 20
1650.074142399569
 30
0.0
 40
2.0
  0
CIRCLE
  5
1CE
330
1F
100
AcDbEntity
  8
VISIBLE
100
AcDbCircle
 10
1118.37377929688
 20
1617.637475454346
 30
0.0
 40
2.0
  0
LINE
  5
1CF
330
1F
100
AcDbEntity
  8
VISIBLE
100
AcDbLine
 10
1133.37377929688
 20
1691.79772949219
 30
0.0
 11
1093.37377929688
 21
1691.79772949219
 31
0.0
  0
CIRCLE
  5
1D0
330
1F
100
AcDbEntity
  8
VISIBLE
100
AcDbCircle
 10
1323.148354437506
 20
1611.603098184878
 30
0.0
 40
2.0
  0
CIRCLE
  5
1D1
330
1F
100
AcDbEntity
  8
VISIBLE
100
AcDbCircle
 10
1123.37377929688
 20
1626.29772949219
 30
0.0
 40
2.0
  0
CIRCLE
  5
1D2
330
1F
100
AcDbEntity
  8
VISIBLE
100
AcDbCircle
 10
1121.099204156254
 20
1602.521316584811
 30
0.0
 40
2.0
  0
CIRCLE
  5
1D3
330
1F
100
AcDbEntity
  8
VISIBLE
100
AcDbCircle
 10
1138.37377929688
 20
1626.29772949219
 30
0.0
 40
2.0
  0
LINE
  5
1D4
330
1F
100
AcDbEntity
  8
VISIBLE
100
AcDbLine
 10
1000.37377929688
 20
1634.79772949219
 30
0.0
 11
1003.37377929688
 21
1634.79772949219
 31
0.0
  0
LINE
  5
1D5
330
1F
100
AcDbEntity
  8
VISIBLE
100
AcDbLine
 10
1453.37377929688
 20
1697.79772949219
 30
0.0
 11
1453.37377929688
 21
1674.79772949219
 31
0.0
  0
CIRCLE
  5
1D6
330
1F
100
AcDbEntity
  8
VISIBLE
100
AcDbCircle
 10
1363.599204156254
 20
1611.603098184878
 30
0.0
 40
2.0
  0
CIRCLE
  5
1D7
330
1F
100
AcDbEntity
  8
VISIBLE
100
AcDbCircle
 10
1121.099204156254
 20
1650.074142399569
 30
0.0
 40
2.0
  0
LINE
  5
1D8
330
1F
100
AcDbEntity
  8
VISIBLE
100
AcDbLine
 10
1363.37377929688
 20
1694.79772949219
 30
0.0
 11
1363.37377929688
 21
1691.79772949219
 31
0.0
  0
CIRCLE
  5
1D9
330
1F
100
AcDbEntity
  8
VISIBLE
100
AcDbCircle
 10
1133.599204156254
 20
1611.603098184878
 30
0.0
 40
2.0
  0
CIRCLE
  5
1DA
330
1F
100
AcDbEntity
  8
VISIBLE
100
AcDbCircle
 10
1133.599204156254
 20
1640.992360799502
 30
0.0
 40
2.0
  0
CIRCLE
  5
1DB
330
1F
100
AcDbEntity
  8
VISIBLE
100
AcDbCircle
 10
1323.148354437506
 20
1640.992360799502
 30
0.0
 40
2.0
  0
CIRCLE
  5
1DC
330
1F
100
AcDbEntity
  8
VISIBLE
100
AcDbCircle
 10
1093.148354437506
 20
1611.603098184878
 30
0.0
 40
2.0
  0
CIRCLE
  5
1DD
330
1F
100
AcDbEntity
  8
VISIBLE
100
AcDbCircle
 10
1105.648354437506
 20
1602.521316584811
 30
0.0
 40
2.0
  0
LINE
  5
1DE
330
1F
100
AcDbEntity
  8
VISIBLE
100
AcDbLine
 10
1133.37377929688
 20
1694.79772949219
 30
0.0
 11
1133.37377929688
 21
1691.79772949219
 31
0.0
  0
CIRCLE
  5
1DF
330
1F
100
AcDbEntity
  8
VISIBLE
100
AcDbCircle
 10
1103.37377929688
 20
1626.29772949219
 30
0.0
 40
2.0
  0
CIRCLE
  5
1E0
330
1F
100
AcDbEntity
  8
VISIBLE
100
AcDbCircle
 10
1338.37377929688
 20
1617.637475454346
 30
0.0
 40
2.0
  0
CIRCLE
  5
1E1
330
1F
100
AcDbEntity
  8
VISIBLE
100
AcDbCircle
 10
1353.37377929688
 20
1626.29772949219
 30
0.0
 40
2.0
  0
CIRCLE
  5
1E2
330
1F
100
AcDbEntity
  8
VISIBLE
100
AcDbCircle
 10
1093.148354437506
 20
1640.992360799502
 30
0.0
 40
2.0
  0
CIRCLE
  5
1E3
330
1F
100
AcDbEntity
  8
VISIBLE
100
AcDbCircle
 10
1108.37377929688
 20
1617.637475454346
 30
0.0
 40
2.0
  0
LINE
  5
1E4
330
1F
100
AcDbEntity
  8
VISIBLE
100
AcDbLine
 10
1363.37377929688
 20
1691.79772949219
 30
0.0
 11
1323.37377929688
 21
1691.79772949219
 31
0.0
  0
CIRCLE
  5
1E5
330
1F
100
AcDbEntity
  8
VISIBLE
100
AcDbCircle
 10
1348.37377929688
 20
1634.957983530034
 30
0.0
 40
2.0
  0
CIRCLE
  5
1E6
330
1F
100
AcDbEntity
  8
VISIBLE
100
AcDbCircle
 10
1333.37377929688
 20
1626.29772949219
 30
0.0
 40
2.0
  0
LINE
  5
1E7
330
1F
100
AcDbEntity
  8
VISIBLE
100
AcDbLine
 10
1487.80236816406
 20
1920.9326171875
 30
0.0
 11
1487.80236816406
 21
1950.9326171875
 31
0.0
  0
LINE
  5
1E8
330
1F
100
AcDbEntity
  8
VISIBLE
100
AcDbLine
 10
1937.80236816406
 20
1596.9326171875
 30
0.0
 11
1487.80236816406
 21
1596.9326171875
 31
0.0
  0
LINE
  5
1E9
330
1F
100
AcDbEntity
  8
VISIBLE
100
AcDbLine
 10
1487.80236816406
 20
1740.9326171875
 30
0.0
 11
1484.80236816406
 21
1740.9326171875
 31
0.0
  0
LINE
  5
1EA
330
1F
100
AcDbEntity
  8
VISIBLE
100
AcDbLine
 10
1484.80236816406
 20
1780.9326171875
 30
0.0
 11
1487.80236816406
 21
1780.9326171875
 31
0.0
  0
LINE
  5
1EB
330
1F
100
AcDbEntity
  8
VISIBLE
100
AcDbLine
 10
1940.80236816406
 20
1740.9326171875
 30
0.0
 11
1937.80236816406
 21
1740.9326171875
 31
0.0
  0
LINE
  5
1EC
330
1F
100
AcDbEntity
  8
VISIBLE
100
AcDbLine
 10
1484.80236816406
 20
1880.9326171875
 30
0.0
 11
1484.80236816406
 21
1920.9326171875
 31
0.0
  0
LINE
  5
1ED
330
1F
100
AcDbEntity
  8
VISIBLE
100
AcDbLine
 10
1937.80236816406
 20
1640.9326171875
 30
0.0
 11
1940.80236816406
 21
1640.9326171875
 31
0.0
  0
LINE
  5
1EE
330
1F
100
AcDbEntity
  8
VISIBLE
100
AcDbLine
 10
1937.80236816406
 20
1950.9326171875
 30
0.0
 11
1937.80236816406
 21
1920.9326171875
 31
0.0
  0
LINE
  5
1EF
330
1F
100
AcDbEntity
  8
VISIBLE
100
AcDbLine
 10
1484.80236816406
 20
1600.9326171875
 30
0.0
 11
1484.80236816406
 21
1640.9326171875
 31
0.0
  0
LINE
  5
1F0
330
1F
100
AcDbEntity
  8
VISIBLE
100
AcDbLine
 10
1940.80236816406
 20
1780.9326171875
 30
0.0
 11
1940.80236816406
 21
1740.9326171875
 31
0.0
  0
LINE
  5
1F1
330
1F
100
AcDbEntity
  8
VISIBLE
100
AcDbLine
 10
1937.80236816406
 20
1740.9326171875
 30
0.0
 11
1937.80236816406
 21
1640.9326171875
 31
0.0
  0
LINE
  5
1F2
330
1F
100
AcDbEntity
  8
VISIBLE
100
AcDbLine
 10
1937.80236816406
 20
1880.9326171875
 30
0.0
 11
1937.80236816406
 21
1780.9326171875
 31
0.0
  0
LINE
  5
1F3
330
1F
100
AcDbEntity
  8
VISIBLE
100
AcDbLine
 10
1937.80236816406
 20
1780.9326171875
 30
0.0
 11
1940.80236816406
 21
1780.9326171875
 31
0.0
  0
LINE
  5
1F4
330
1F
100
AcDbEntity
  8
VISIBLE
100
AcDbLine
 10
1487.80236816406
 20
1640.9326171875
 30
0.0
 11
1487.80236816406
 21
1740.9326171875
 31
0.0
  0
LINE
  5
1F5
330
1F
100
AcDbEntity
  8
VISIBLE
100
AcDbLine
 10
1484.80236816406
 20
1640.9326171875
 30
0.0
 11
1487.80236816406
 21
1640.9326171875
 31
0.0
  0
LINE
  5
1F6
330
1F
100
AcDbEntity
  8
VISIBLE
100
AcDbLine
 10
1487.80236816406
 20
1950.9326171875
 30
0.0
 11
1937.80236816406
 21
1950.9326171875
 31
0.0
  0
LINE
  5
1F7
330
1F
100
AcDbEntity
  8
VISIBLE
100
AcDbLine
 10
1937.80236816406
 20
1600.9326171875
 30
0.0
 11
1937.80236816406
 21
1596.9326171875
 31
0.0
  0
LINE
  5
1F8
330
1F
100
AcDbEntity
  8
VISIBLE
100
AcDbLine
 10
1484.80236816406
 20
1740.9326171875
 30
0.0
 11
1484.80236816406
 21
1780.9326171875
 31
0.0
  0
LINE
  5
1F9
330
1F
100
AcDbEntity
  8
VISIBLE
100
AcDbLine
 10
1937.80236816406
 20
1920.9326171875
 30
0.0
 11
1940.80236816406
 21
1920.9326171875
 31
0.0
  0
LINE
  5
1FA
330
1F
100
AcDbEntity
  8
VISIBLE
100
AcDbLine
 10
1940.80236816406
 20
1640.9326171875
 30
0.0
 11
1940.80236816406
 21
1600.9326171875
 31
0.0
  0
LINE
  5
1FB
330
1F
100
AcDbEntity
  8
VISIBLE
100
AcDbLine
 10
1487.80236816406
 20
1780.9326171875
 30
0.0
 11
1487.80236816406
 21
1880.9326171875
 31
0.0
  0
LINE
  5
1FC
330
1F
100
AcDbEntity
  8
VISIBLE
100
AcDbLine
 10
1487.80236816406
 20
1880.9326171875
 30
0.0
 11
1484.80236816406
 21
1880.9326171875
 31
0.0
  0
LINE
  5
1FD
330
1F
100
AcDbEntity
  8
VISIBLE
100
AcDbLine
 10
1487.80236816406
 20
1600.9326171875
 30
0.0
 11
1484.80236816406
 21
1600.9326171875
 31
0.0
  0
LINE
  5
1FE
330
1F
100
AcDbEntity
  8
VISIBLE
100
AcDbLine
 10
1940.80236816406
 20
1880.9326171875
 30
0.0
 11
1937.80236816406
 21
1880.9326171875
 31
0.0
  0
LINE
  5
1FF
330
1F
100
AcDbEntity
  8
VISIBLE
100
AcDbLine
 10
1484.80236816406
 20
1920.9326171875
 30
0.0
 11
1487.80236816406
 21
1920.9326171875
 31
0.0
  0
LINE
  5
200
330
1F
100
AcDbEntity
  8
VISIBLE
100
AcDbLine
 10
1487.80236816406
 20
1596.9326171875
 30
0.0
 11
1487.80236816406
 21
1600.9326171875
 31
0.0
  0
LINE
  5
201
330
1F
100
AcDbEntity
  8
VISIBLE
100
AcDbLine
 10
1940.80236816406
 20
1920.9326171875
 30
0.0
 11
1940.80236816406
 21
1880.9326171875
 31
0.0
  0
LINE
  5
202
330
1F
100
AcDbEntity
  8
VISIBLE
100
AcDbLine
 10
1940.80236816406
 20
1600.9326171875
 30
0.0
 11
1937.80236816406
 21
1600.9326171875
 31
0.0
  0
LINE
  5
203
330
1F
100
AcDbEntity
  8
VISIBLE
100
AcDbLine
 10
1947.64904785156
 20
1338.2080078125
 30
0.0
 11
1936.649047851561
 21
1338.2080078125
 31
0.0
  0
LINE
  5
204
330
1F
100
AcDbEntity
  8
VISIBLE
100
AcDbLine
 10
1942.64904785156
 20
1208.2080078125
 30
0.0
 11
1942.64904785156
 21
1228.2080078125
 31
0.0
  0
LINE
  5
205
330
1F
100
AcDbEntity
  8
VISIBLE
100
AcDbLine
 10
1610.14904785156
 20
1260.2080078125
 30
0.0
 11
1610.14904785156
 21
1278.7080078125
 31
0.0
  0
LINE
  5
206
330
1F
100
AcDbEntity
  8
VISIBLE
100
AcDbLine
 10
1936.64904785156
 20
1338.2080078125
 30
0.0
 11
1936.64904785156
 21
1238.2080078125
 31
0.0
  0
LINE
  5
207
330
1F
100
AcDbEntity
  8
VISIBLE
100
AcDbLine
 10
1936.64904785156
 20
1576.2080078125
 30
0.0
 11
1936.64904785156
 21
1518.2080078125
 31
0.0
  0
LINE
  5
208
330
1F
100
AcDbEntity
  8
VISIBLE
100
AcDbLine
 10
1942.649047851561
 20
1348.2080078125
 30
0.0
 11
1942.649047851561
 21
1368.2080078125
 31
0.0
  0
LINE
  5
209
330
1F
100
AcDbEntity
  8
VISIBLE
100
AcDbLine
 10
1939.64904785156
 20
1208.2080078125
 30
0.0
 11
1942.64904785156
 21
1208.2080078125
 31
0.0
  0
LINE
  5
20A
330
1F
100
AcDbEntity
  8
VISIBLE
100
AcDbLine
 10
1480.649047851559
 20
1348.2080078125
 30
0.0
 11
1483.649047851559
 21
1348.2080078125
 31
0.0
  0
LINE
  5
20B
330
1F
100
AcDbEntity
  8
VISIBLE
100
AcDbLine
 10
1810.14904785156
 20
1238.7080078125
 30
0.0
 11
1810.14904785156
 21
1257.2080078125
 31
0.0
  0
LINE
  5
20C
330
1F
100
AcDbEntity
  8
VISIBLE
100
AcDbLine
 10
1613.14904785156
 20
1260.2080078125
 30
0.0
 11
1631.64904785156
 21
1260.2080078125
 31
0.0
  0
LINE
  5
20D
330
1F
100
AcDbEntity
  8
VISIBLE
100
AcDbLine
 10
1475.64904785156
 20
1518.2080078125
 30
0.0
 11
1486.649047851559
 21
1518.2080078125
 31
0.0
  0
LINE
  5
20E
330
1F
100
AcDbEntity
  8
VISIBLE
100
AcDbLine
 10
1810.14904785156
 20
1257.2080078125
 30
0.0
 11
1791.64904785156
 21
1257.2080078125
 31
0.0
  0
LINE
  5
20F
330
1F
100
AcDbEntity
  8
VISIBLE
100
AcDbLine
 10
1791.64904785156
 20
1460.2080078125
 30
0.0
 11
1810.14904785156
 21
1460.2080078125
 31
0.0
  0
LINE
  5
210
330
1F
100
AcDbEntity
  8
VISIBLE
100
AcDbLine
 10
1591.64904785156
 20
1460.2080078125
 30
0.0
 11
1610.14904785156
 21
1460.2080078125
 31
0.0
  0
LINE
  5
211
330
1F
100
AcDbEntity
  8
VISIBLE
100
AcDbLine
 10
1591.64904785156
 20
1260.2080078125
 30
0.0
 11
1610.14904785156
 21
1260.2080078125
 31
0.0
  0
LINE
  5
212
330
1F
100
AcDbEntity
  8
VISIBLE
100
AcDbLine
 10
1486.649047851559
 20
1338.2080078125
 30
0.0
 11
1475.64904785156
 21
1338.2080078125
 31
0.0
  0
LINE
  5
213
330
1F
100
AcDbEntity
  8
VISIBLE
100
AcDbLine
 10
1810.14904785156
 20
1260.2080078125
 30
0.0
 11
1810.14904785156
 21
1278.7080078125
 31
0.0
  0
LINE
  5
214
330
1F
100
AcDbEntity
  8
VISIBLE
100
AcDbLine
 10
1947.64904785156
 20
1478.2080078125
 30
0.0
 11
1936.649047851561
 21
1478.2080078125
 31
0.0
  0
LINE
  5
215
330
1F
100
AcDbEntity
  8
VISIBLE
100
AcDbLine
 10
1483.649047851559
 20
1348.2080078125
 30
0.0
 11
1483.649047851559
 21
1368.2080078125
 31
0.0
  0
LINE
  5
216
330
1F
100
AcDbEntity
  8
VISIBLE
100
AcDbLine
 10
1942.649047851561
 20
1368.2080078125
 30
0.0
 11
1939.649047851561
 21
1368.2080078125
 31
0.0
  0
LINE
  5
217
330
1F
100
AcDbEntity
  8
VISIBLE
100
AcDbLine
 10
1810.14904785156
 20
1457.2080078125
 30
0.0
 11
1791.64904785156
 21
1457.2080078125
 31
0.0
  0
LINE
  5
218
330
1F
100
AcDbEntity
  8
VISIBLE
100
AcDbLine
 10
1613.14904785156
 20
1460.2080078125
 30
0.0
 11
1631.64904785156
 21
1460.2080078125
 31
0.0
  0
LINE
  5
219
330
1F
100
AcDbEntity
  8
VISIBLE
100
AcDbLine
 10
1591.64904785156
 20
1457.2080078125
 30
0.0
 11
1591.64904785156
 21
1460.2080078125
 31
0.0
  0
LINE
  5
21A
330
1F
100
AcDbEntity
  8
VISIBLE
100
AcDbLine
 10
1486.64904785156
 20
1378.2080078125
 30
0.0
 11
1486.64904785156
 21
1478.2080078125
 31
0.0
  0
LINE
  5
21B
330
1F
100
AcDbEntity
  8
VISIBLE
100
AcDbLine
 10
1947.64904785156
 20
1198.2080078125
 30
0.0
 11
1936.64904785156
 21
1198.2080078125
 31
0.0
  0
LINE
  5
21C
330
1F
100
AcDbEntity
  8
VISIBLE
100
AcDbLine
 10
1936.64904785156
 20
1141.2080078125
 30
0.0
 11
1486.64904785156
 21
1141.2080078125
 31
0.0
  0
LINE
  5
21D
330
1F
100
AcDbEntity
  8
VISIBLE
100
AcDbLine
 10
1939.649047851561
 20
1348.2080078125
 30
0.0
 11
1942.649047851561
 21
1348.2080078125
 31
0.0
  0
LINE
  5
21E
330
1F
100
AcDbEntity
  8
VISIBLE
100
AcDbLine
 10
1947.64904785156
 20
1238.2080078125
 30
0.0
 11
1947.64904785156
 21
1198.2080078125
 31
0.0
  0
LINE
  5
21F
330
1F
100
AcDbEntity
  8
VISIBLE
100
AcDbLine
 10
1610.14904785156
 20
1457.2080078125
 30
0.0
 11
1591.64904785156
 21
1457.2080078125
 31
0.0
  0
LINE
  5
220
330
1F
100
AcDbEntity
  8
VISIBLE
100
AcDbLine
 10
1936.64904785156
 20
1238.2080078125
 30
0.0
 11
1947.64904785156
 21
1238.2080078125
 31
0.0
  0
LINE
  5
221
330
1F
100
AcDbEntity
  8
VISIBLE
100
AcDbLine
 10
1813.14904785156
 20
1457.2080078125
 30
0.0
 11
1813.14904785156
 21
1438.7080078125
 31
0.0
  0
LINE
  5
222
330
1F
100
AcDbEntity
  8
VISIBLE
100
AcDbLine
 10
1613.14904785156
 20
1438.7080078125
 30
0.0
 11
1610.14904785156
 21
1438.7080078125
 31
0.0
  0
LINE
  5
223
330
1F
100
AcDbEntity
  8
VISIBLE
100
AcDbLine
 10
1947.64904785156
 20
1378.2080078125
 30
0.0
 11
1947.64904785156
 21
1338.2080078125
 31
0.0
  0
LINE
  5
224
330
1F
100
AcDbEntity
  8
VISIBLE
100
AcDbLine
 10
1942.64904785156
 20
1228.2080078125
 30
0.0
 11
1939.64904785156
 21
1228.2080078125
 31
0.0
  0
LINE
  5
225
330
1F
100
AcDbEntity
  8
VISIBLE
100
AcDbLine
 10
1813.14904785156
 20
1238.7080078125
 30
0.0
 11
1810.14904785156
 21
1238.7080078125
 31
0.0
  0
LINE
  5
226
330
1F
100
AcDbEntity
  8
VISIBLE
100
AcDbLine
 10
1813.14904785156
 20
1278.7080078125
 30
0.0
 11
1813.14904785156
 21
1260.2080078125
 31
0.0
  0
LINE
  5
227
330
1F
100
AcDbEntity
  8
VISIBLE
100
AcDbLine
 10
1486.64904785156
 20
1576.2080078125
 30
0.0
 11
1936.64904785156
 21
1576.2080078125
 31
0.0
  0
LINE
  5
228
330
1F
100
AcDbEntity
  8
VISIBLE
100
AcDbLine
 10
1483.649047851559
 20
1368.2080078125
 30
0.0
 11
1480.649047851559
 21
1368.2080078125
 31
0.0
  0
LINE
  5
229
330
1F
100
AcDbEntity
  8
VISIBLE
100
AcDbLine
 10
1791.64904785156
 20
1260.2080078125
 30
0.0
 11
1810.14904785156
 21
1260.2080078125
 31
0.0
  0
LINE
  5
22A
330
1F
100
AcDbEntity
  8
VISIBLE
100
AcDbLine
 10
1942.649047851561
 20
1508.2080078125
 30
0.0
 11
1939.649047851561
 21
1508.2080078125
 31
0.0
  0
LINE
  5
22B
330
1F
100
AcDbEntity
  8
VISIBLE
100
AcDbLine
 10
1610.14904785156
 20
1278.7080078125
 30
0.0
 11
1613.14904785156
 21
1278.7080078125
 31
0.0
  0
LINE
  5
22C
330
1F
100
AcDbEntity
  8
VISIBLE
100
AcDbLine
 10
1631.64904785156
 20
1257.2080078125
 30
0.0
 11
1613.14904785156
 21
1257.2080078125
 31
0.0
  0
LINE
  5
22D
330
1F
100
AcDbEntity
  8
VISIBLE
100
AcDbLine
 10
1939.649047851561
 20
1488.2080078125
 30
0.0
 11
1942.649047851561
 21
1488.2080078125
 31
0.0
  0
LINE
  5
22E
330
1F
100
AcDbEntity
  8
VISIBLE
100
AcDbLine
 10
1813.14904785156
 20
1438.7080078125
 30
0.0
 11
1810.14904785156
 21
1438.7080078125
 31
0.0
  0
LINE
  5
22F
330
1F
100
AcDbEntity
  8
VISIBLE
100
AcDbLine
 10
1810.14904785156
 20
1278.7080078125
 30
0.0
 11
1813.14904785156
 21
1278.7080078125
 31
0.0
  0
LINE
  5
230
330
1F
100
AcDbEntity
  8
VISIBLE
100
AcDbLine
 10
1939.649047851561
 20
1508.2080078125
 30
0.0
 11
1939.649047851561
 21
1488.2080078125
 31
0.0
  0
LINE
  5
231
330
1F
100
AcDbEntity
  8
VISIBLE
100
AcDbLine
 10
1480.649047851559
 20
1488.2080078125
 30
0.0
 11
1483.649047851559
 21
1488.2080078125
 31
0.0
  0
LINE
  5
232
330
1F
100
AcDbEntity
  8
VISIBLE
100
AcDbLine
 10
1813.14904785156
 20
1257.2080078125
 30
0.0
 11
1813.14904785156
 21
1238.7080078125
 31
0.0
  0
LINE
  5
233
330
1F
100
AcDbEntity
  8
VISIBLE
100
AcDbLine
 10
1610.14904785156
 20
1478.7080078125
 30
0.0
 11
1613.14904785156
 21
1478.7080078125
 31
0.0
  0
LINE
  5
234
330
1F
100
AcDbEntity
  8
VISIBLE
100
AcDbLine
 10
1936.64904785156
 20
1198.2080078125
 30
0.0
 11
1936.64904785156
 21
1141.2080078125
 31
0.0
  0
LINE
  5
235
330
1F
100
AcDbEntity
  8
VISIBLE
100
AcDbLine
 10
1813.14904785156
 20
1478.7080078125
 30
0.0
 11
1813.14904785156
 21
1460.2080078125
 31
0.0
  0
LINE
  5
236
330
1F
100
AcDbEntity
  8
VISIBLE
100
AcDbLine
 10
1486.64904785156
 20
1518.2080078125
 30
0.0
 11
1486.64904785156
 21
1576.2080078125
 31
0.0
  0
LINE
  5
237
330
1F
100
AcDbEntity
  8
VISIBLE
100
AcDbLine
 10
1483.649047851559
 20
1508.2080078125
 30
0.0
 11
1480.649047851559
 21
1508.2080078125
 31
0.0
  0
LINE
  5
238
330
1F
100
AcDbEntity
  8
VISIBLE
100
AcDbLine
 10
1947.64904785156
 20
1518.2080078125
 30
0.0
 11
1947.64904785156
 21
1478.2080078125
 31
0.0
  0
LINE
  5
239
330
1F
100
AcDbEntity
  8
VISIBLE
100
AcDbLine
 10
1483.649047851559
 20
1488.2080078125
 30
0.0
 11
1483.649047851559
 21
1508.2080078125
 31
0.0
  0
LINE
  5
23A
330
1F
100
AcDbEntity
  8
VISIBLE
100
AcDbLine
 10
1483.64904785156
 20
1208.2080078125
 30
0.0
 11
1483.64904785156
 21
1228.2080078125
 31
0.0
  0
LINE
  5
23B
330
1F
100
AcDbEntity
  8
VISIBLE
100
AcDbLine
 10
1810.14904785156
 20
1478.7080078125
 30
0.0
 11
1813.14904785156
 21
1478.7080078125
 31
0.0
  0
LINE
  5
23C
330
1F
100
AcDbEntity
  8
VISIBLE
100
AcDbLine
 10
1613.14904785156
 20
1478.7080078125
 30
0.0
 11
1613.14904785156
 21
1460.2080078125
 31
0.0
  0
LINE
  5
23D
330
1F
100
AcDbEntity
  8
VISIBLE
100
AcDbLine
 10
1475.64904785156
 20
1198.2080078125
 30
0.0
 11
1475.64904785156
 21
1238.2080078125
 31
0.0
  0
LINE
  5
23E
330
1F
100
AcDbEntity
  8
VISIBLE
100
AcDbLine
 10
1936.64904785156
 20
1478.2080078125
 30
0.0
 11
1936.64904785156
 21
1378.2080078125
 31
0.0
  0
LINE
  5
23F
330
1F
100
AcDbEntity
  8
VISIBLE
100
AcDbLine
 10
1483.64904785156
 20
1228.2080078125
 30
0.0
 11
1480.64904785156
 21
1228.2080078125
 31
0.0
  0
LINE
  5
240
330
1F
100
AcDbEntity
  8
VISIBLE
100
AcDbLine
 10
1631.64904785156
 20
1460.2080078125
 30
0.0
 11
1631.64904785156
 21
1457.2080078125
 31
0.0
  0
LINE
  5
241
330
1F
100
AcDbEntity
  8
VISIBLE
100
AcDbLine
 10
1831.64904785156
 20
1260.2080078125
 30
0.0
 11
1831.64904785156
 21
1257.2080078125
 31
0.0
  0
LINE
  5
242
330
1F
100
AcDbEntity
  8
VISIBLE
100
AcDbLine
 10
1486.649047851559
 20
1478.2080078125
 30
0.0
 11
1475.64904785156
 21
1478.2080078125
 31
0.0
  0
LINE
  5
243
330
1F
100
AcDbEntity
  8
VISIBLE
100
AcDbLine
 10
1480.649047851559
 20
1368.2080078125
 30
0.0
 11
1480.649047851559
 21
1348.2080078125
 31
0.0
  0
LINE
  5
244
330
1F
100
AcDbEntity
  8
VISIBLE
100
AcDbLine
 10
1480.649047851559
 20
1508.2080078125
 30
0.0
 11
1480.649047851559
 21
1488.2080078125
 31
0.0
  0
LINE
  5
245
330
1F
100
AcDbEntity
  8
VISIBLE
100
AcDbLine
 10
1486.64904785156
 20
1198.2080078125
 30
0.0
 11
1475.64904785156
 21
1198.2080078125
 31
0.0
  0
LINE
  5
246
330
1F
100
AcDbEntity
  8
VISIBLE
100
AcDbLine
 10
1610.14904785156
 20
1238.7080078125
 30
0.0
 11
1610.14904785156
 21
1257.2080078125
 31
0.0
  0
LINE
  5
247
330
1F
100
AcDbEntity
  8
VISIBLE
100
AcDbLine
 10
1939.64904785156
 20
1228.2080078125
 30
0.0
 11
1939.64904785156
 21
1208.2080078125
 31
0.0
  0
LINE
  5
248
330
1F
100
AcDbEntity
  8
VISIBLE
100
AcDbLine
 10
1486.64904785156
 20
1141.2080078125
 30
0.0
 11
1486.64904785156
 21
1198.2080078125
 31
0.0
  0
LINE
  5
249
330
1F
100
AcDbEntity
  8
VISIBLE
100
AcDbLine
 10
1631.64904785156
 20
1457.2080078125
 30
0.0
 11
1613.14904785156
 21
1457.2080078125
 31
0.0
  0
LINE
  5
24A
330
1F
100
AcDbEntity
  8
VISIBLE
100
AcDbLine
 10
1936.649047851561
 20
1518.2080078125
 30
0.0
 11
1947.64904785156
 21
1518.2080078125
 31
0.0
  0
LINE
  5
24B
330
1F
100
AcDbEntity
  8
VISIBLE
100
AcDbLine
 10
1936.649047851561
 20
1378.2080078125
 30
0.0
 11
1947.64904785156
 21
1378.2080078125
 31
0.0
  0
LINE
  5
24C
330
1F
100
AcDbEntity
  8
VISIBLE
100
AcDbLine
 10
1810.14904785156
 20
1460.2080078125
 30
0.0
 11
1810.14904785156
 21
1478.7080078125
 31
0.0
  0
LINE
  5
24D
330
1F
100
AcDbEntity
  8
VISIBLE
100
AcDbLine
 10
1610.14904785156
 20
1257.2080078125
 30
0.0
 11
1591.64904785156
 21
1257.2080078125
 31
0.0
  0
LINE
  5
24E
330
1F
100
AcDbEntity
  8
VISIBLE
100
AcDbLine
 10
1475.64904785156
 20
1338.2080078125
 30
0.0
 11
1475.64904785156
 21
1378.2080078125
 31
0.0
  0
LINE
  5
24F
330
1F
100
AcDbEntity
  8
VISIBLE
100
AcDbLine
 10
1942.649047851561
 20
1488.2080078125
 30
0.0
 11
1942.649047851561
 21
1508.2080078125
 31
0.0
  0
LINE
  5
250
330
1F
100
AcDbEntity
  8
VISIBLE
100
AcDbLine
 10
1591.64904785156
 20
1257.2080078125
 30
0.0
 11
1591.64904785156
 21
1260.2080078125
 31
0.0
  0
LINE
  5
251
330
1F
100
AcDbEntity
  8
VISIBLE
100
AcDbLine
 10
1813.14904785156
 20
1460.2080078125
 30
0.0
 11
1831.64904785156
 21
1460.2080078125
 31
0.0
  0
LINE
  5
252
330
1F
100
AcDbEntity
  8
VISIBLE
100
AcDbLine
 10
1613.14904785156
 20
1238.7080078125
 30
0.0
 11
1610.14904785156
 21
1238.7080078125
 31
0.0
  0
LINE
  5
253
330
1F
100
AcDbEntity
  8
VISIBLE
100
AcDbLine
 10
1813.14904785156
 20
1260.2080078125
 30
0.0
 11
1831.64904785156
 21
1260.2080078125
 31
0.0
  0
LINE
  5
254
330
1F
100
AcDbEntity
  8
VISIBLE
100
AcDbLine
 10
1475.64904785156
 20
1378.2080078125
 30
0.0
 11
1486.649047851559
 21
1378.2080078125
 31
0.0
  0
LINE
  5
255
330
1F
100
AcDbEntity
  8
VISIBLE
100
AcDbLine
 10
1810.14904785156
 20
1438.7080078125
 30
0.0
 11
1810.14904785156
 21
1457.2080078125
 31
0.0
  0
LINE
  5
256
330
1F
100
AcDbEntity
  8
VISIBLE
100
AcDbLine
 10
1831.64904785156
 20
1457.2080078125
 30
0.0
 11
1813.14904785156
 21
1457.2080078125
 31
0.0
  0
LINE
  5
257
330
1F
100
AcDbEntity
  8
VISIBLE
100
AcDbLine
 10
1831.64904785156
 20
1257.2080078125
 30
0.0
 11
1813.14904785156
 21
1257.2080078125
 31
0.0
  0
LINE
  5
258
330
1F
100
AcDbEntity
  8
VISIBLE
100
AcDbLine
 10
1631.64904785156
 20
1260.2080078125
 30
0.0
 11
1631.64904785156
 21
1257.2080078125
 31
0.0
  0
LINE
  5
259
330
1F
100
AcDbEntity
  8
VISIBLE
100
AcDbLine
 10
1831.64904785156
 20
1460.2080078125
 30
0.0
 11
1831.64904785156
 21
1457.2080078125
 31
0.0
  0
LINE
  5
25A
330
1F
100
AcDbEntity
  8
VISIBLE
100
AcDbLine
 10
1613.14904785156
 20
1457.2080078125
 30
0.0
 11
1613.14904785156
 21
1438.7080078125
 31
0.0
  0
LINE
  5
25B
330
1F
100
AcDbEntity
  8
VISIBLE
100
AcDbLine
 10
1475.64904785156
 20
1478.2080078125
 30
0.0
 11
1475.64904785156
 21
1518.2080078125
 31
0.0
  0
LINE
  5
25C
330
1F
100
AcDbEntity
  8
VISIBLE
100
AcDbLine
 10
1486.64904785156
 20
1238.2080078125
 30
0.0
 11
1486.64904785156
 21
1338.2080078125
 31
0.0
  0
LINE
  5
25D
330
1F
100
AcDbEntity
  8
VISIBLE
100
AcDbLine
 10
1480.64904785156
 20
1228.2080078125
 30
0.0
 11
1480.64904785156
 21
1208.2080078125
 31
0.0
  0
LINE
  5
25E
330
1F
100
AcDbEntity
  8
VISIBLE
100
AcDbLine
 10
1610.14904785156
 20
1460.2080078125
 30
0.0
 11
1610.14904785156
 21
1478.7080078125
 31
0.0
  0
LINE
  5
25F
330
1F
100
AcDbEntity
  8
VISIBLE
100
AcDbLine
 10
1610.14904785156
 20
1438.7080078125
 30
0.0
 11
1610.14904785156
 21
1457.2080078125
 31
0.0
  0
LINE
  5
260
330
1F
100
AcDbEntity
  8
VISIBLE
100
AcDbLine
 10
1791.64904785156
 20
1457.2080078125
 30
0.0
 11
1791.64904785156
 21
1460.2080078125
 31
0.0
  0
LINE
  5
261
330
1F
100
AcDbEntity
  8
VISIBLE
100
AcDbLine
 10
1613.14904785156
 20
1278.7080078125
 30
0.0
 11
1613.14904785156
 21
1260.2080078125
 31
0.0
  0
LINE
  5
262
330
1F
100
AcDbEntity
  8
VISIBLE
100
AcDbLine
 10
1475.64904785156
 20
1238.2080078125
 30
0.0
 11
1486.64904785156
 21
1238.2080078125
 31
0.0
  0
LINE
  5
263
330
1F
100
AcDbEntity
  8
VISIBLE
100
AcDbLine
 10
1939.649047851561
 20
1368.2080078125
 30
0.0
 11
1939.649047851561
 21
1348.2080078125
 31
0.0
  0
LINE
  5
264
330
1F
100
AcDbEntity
  8
VISIBLE
100
AcDbLine
 10
1480.64904785156
 20
1208.2080078125
 30
0.0
 11
1483.64904785156
 21
1208.2080078125
 31
0.0
  0
LINE
  5
265
330
1F
100
AcDbEntity
  8
VISIBLE
100
AcDbLine
 10
1613.14904785156
 20
1257.2080078125
 30
0.0
 11
1613.14904785156
 21
1238.7080078125
 31
0.0
  0
LINE
  5
266
330
1F
100
AcDbEntity
  8
VISIBLE
100
AcDbLine
 10
1791.64904785156
 20
1257.2080078125
 30
0.0
 11
1791.64904785156
 21
1260.2080078125
 31
0.0
  0
LINE
  5
267
330
1F
100
AcDbEntity
  8
VISIBLE
100
AcDbLine
 10
484.055236816406
 20
1263.16296386719
 30
0.0
 11
487.055236816406
 21
1263.16296386719
 31
0.0
  0
LINE
  5
268
330
1F
100
AcDbEntity
  8
VISIBLE
100
AcDbLine
 10
481.055236816406
 20
1293.16296386719
 30
0.0
 11
490.055236816406
 21
1293.16296386719
 31
0.0
  0
LINE
  5
269
330
1F
100
AcDbEntity
  8
VISIBLE
100
AcDbLine
 10
487.055236816406
 20
1263.16296386719
 30
0.0
 11
487.055236816406
 21
1283.16296386719
 31
0.0
  0
LINE
  5
26A
330
1F
100
AcDbEntity
  8
VISIBLE
100
AcDbLine
 10
490.055236816406
 20
1293.16296386719
 30
0.0
 11
490.055236816406
 21
1253.16296386719
 31
0.0
  0
LINE
  5
26B
330
1F
100
AcDbEntity
  8
VISIBLE
100
AcDbLine
 10
25.05523681640602
 20
1263.16296386719
 30
0.0
 11
28.05523681640602
 21
1263.16296386719
 31
0.0
  0
LINE
  5
26C
330
1F
100
AcDbEntity
  8
VISIBLE
100
AcDbLine
 10
25.05523681640602
 20
1283.16296386719
 30
0.0
 11
25.05523681640602
 21
1263.16296386719
 31
0.0
  0
LINE
  5
26D
330
1F
100
AcDbEntity
  8
VISIBLE
100
AcDbLine
 10
487.055236816406
 20
1283.16296386719
 30
0.0
 11
484.055236816406
 21
1283.16296386719
 31
0.0
  0
LINE
  5
26E
330
1F
100
AcDbEntity
  8
VISIBLE
100
AcDbLine
 10
481.055236816406
 20
1253.16296386719
 30
0.0
 11
481.055236816406
 21
1250.66296386719
 31
0.0
  0
LINE
  5
26F
330
1F
100
AcDbEntity
  8
VISIBLE
100
AcDbLine
 10
28.05523681640602
 20
1283.16296386719
 30
0.0
 11
25.05523681640602
 21
1283.16296386719
 31
0.0
  0
LINE
  5
270
330
1F
100
AcDbEntity
  8
VISIBLE
100
AcDbLine
 10
484.055236816406
 20
1283.16296386719
 30
0.0
 11
484.055236816406
 21
1263.16296386719
 31
0.0
  0
LINE
  5
271
330
1F
100
AcDbEntity
  8
VISIBLE
100
AcDbLine
 10
481.055236816406
 20
1300.66296386719
 30
0.0
 11
481.055236816406
 21
1293.16296386719
 31
0.0
  0
LINE
  5
272
330
1F
100
AcDbEntity
  8
VISIBLE
100
AcDbLine
 10
31.05523681640602
 20
1250.66296386719
 30
0.0
 11
31.05523681640602
 21
1253.16296386719
 31
0.0
  0
LINE
  5
273
330
1F
100
AcDbEntity
  8
VISIBLE
100
AcDbLine
 10
22.05523681640602
 20
1253.16296386719
 30
0.0
 11
22.05523681640602
 21
1293.16296386719
 31
0.0
  0
LINE
  5
274
330
1F
100
AcDbEntity
  8
VISIBLE
100
AcDbLine
 10
31.05523681640602
 20
1253.16296386719
 30
0.0
 11
22.05523681640619
 21
1253.16296386719
 31
0.0
  0
LINE
  5
275
330
1F
100
AcDbEntity
  8
VISIBLE
100
AcDbLine
 10
31.05523681640602
 20
1293.16296386719
 30
0.0
 11
31.05523681640602
 21
1300.66296386719
 31
0.0
  0
LINE
  5
276
330
1F
100
AcDbEntity
  8
VISIBLE
100
AcDbLine
 10
490.055236816406
 20
1253.16296386719
 30
0.0
 11
481.055236816406
 21
1253.16296386719
 31
0.0
  0
LINE
  5
277
330
1F
100
AcDbEntity
  8
VISIBLE
100
AcDbLine
 10
481.055236816406
 20
1250.66296386719
 30
0.0
 11
31.05523681640602
 21
1250.66296386719
 31
0.0
  0
LINE
  5
278
330
1F
100
AcDbEntity
  8
VISIBLE
100
AcDbLine
 10
22.05523681640602
 20
1293.16296386719
 30
0.0
 11
31.05523681640602
 21
1293.16296386719
 31
0.0
  0
LINE
  5
279
330
1F
100
AcDbEntity
  8
VISIBLE
100
AcDbLine
 10
28.05523681640602
 20
1263.16296386719
 30
0.0
 11
28.05523681640602
 21
1283.16296386719
 31
0.0
  0
LINE
  5
27A
330
1F
100
AcDbEntity
  8
VISIBLE
100
AcDbLine
 10
31.05523681640602
 20
1300.66296386719
 30
0.0
 11
481.055236816406
 21
1300.66296386719
 31
0.0
  0
LINE
  5
27B
330
1F
100
AcDbEntity
  8
VISIBLE
100
AcDbLine
 10
1016.52795410156
 20
1537.94555664063
 30
0.0
 11
1016.52795410156
 21
1540.94555664063
 31
0.0
  0
LINE
  5
27C
330
1F
100
AcDbEntity
  8
VISIBLE
100
AcDbLine
 10
1036.52795410156
 20
1537.94555664063
 30
0.0
 11
1034.406633758
 21
1535.82423629707
 31
0.0
  0
LINE
  5
27D
330
1F
100
AcDbEntity
  8
VISIBLE
100
AcDbLine
 10
1018.64927444512
 20
1535.82423629707
 30
0.0
 11
1016.52795410156
 21
1537.94555664063
 31
0.0
  0
LINE
  5
27E
330
1F
100
AcDbEntity
  8
VISIBLE
100
AcDbLine
 10
1009.52795410156
 20
1546.94555664063
 30
0.0
 11
1043.52795410156
 21
1546.94555664063
 31
0.0
  0
ARC
  5
27F
330
1F
100
AcDbEntity
  8
VISIBLE
100
AcDbCircle
 10
1032.285313414441
 20
1537.94555664063
 30
0.0
 40
3.0
100
AcDbArc
 50
270.0
 51
315.000000000003
  0
ARC
  5
280
330
1F
100
AcDbEntity
  8
VISIBLE
100
AcDbCircle
 10
1020.770594788679
 20
1537.94555664063
 30
0.0
 40
2.999999999999944
100
AcDbArc
 50
224.9999999999985
 51
270.0
  0
LINE
  5
281
330
1F
100
AcDbEntity
  8
VISIBLE
100
AcDbLine
 10
1016.52795410156
 20
1540.94555664063
 30
0.0
 11
1006.52795410156
 21
1540.94555664063
 31
0.0
  0
LINE
  5
282
330
1F
100
AcDbEntity
  8
VISIBLE
100
AcDbLine
 10
1046.52795410156
 20
1543.94555664063
 30
0.0
 11
1046.52795410156
 21
1540.94555664063
 31
0.0
  0
LINE
  5
283
330
1F
100
AcDbEntity
  8
VISIBLE
100
AcDbLine
 10
1032.285313414441
 20
1534.94555664063
 30
0.0
 11
1020.770594788679
 21
1534.94555664063
 31
0.0
  0
LINE
  5
284
330
1F
100
AcDbEntity
  8
VISIBLE
100
AcDbLine
 10
1006.52795410156
 20
1540.94555664063
 30
0.0
 11
1006.52795410156
 21
1543.94555664063
 31
0.0
  0
ARC
  5
285
330
1F
100
AcDbEntity
  8
VISIBLE
100
AcDbCircle
 10
1043.52795410156
 20
1543.94555664063
 30
0.0
 40
3.0
100
AcDbArc
 50
0.0
 51
90.0
  0
LINE
  5
286
330
1F
100
AcDbEntity
  8
VISIBLE
100
AcDbLine
 10
1036.52795410156
 20
1540.94555664063
 30
0.0
 11
1036.52795410156
 21
1537.94555664063
 31
0.0
  0
LINE
  5
287
330
1F
100
AcDbEntity
  8
VISIBLE
100
AcDbLine
 10
1046.52795410156
 20
1540.94555664063
 30
0.0
 11
1036.52795410156
 21
1540.94555664063
 31
0.0
  0
ARC
  5
288
330
1F
100
AcDbEntity
  8
VISIBLE
100
AcDbCircle
 10
1009.52795410156
 20
1543.94555664063
 30
0.0
 40
3.0
100
AcDbArc
 50
90.0
 51
180.0
  0
ENDSEC
  0
SECTION
  2
OBJECTS
  0
DICTIONARY
  5
C
330
0
100
AcDbDictionary
  3
ACAD_GROUP
350
D
  3
ACAD_LAYOUT
350
1A
  3
ACAD_MATERIAL
350
3B
  3
ACAD_MLEADERSTYLE
350
2AB
  3
ACAD_MLINESTYLE
350
17
  3
ACAD_PLOTSETTINGS
350
19
  3
ACAD_VISUALSTYLE
350
2A
  3
ACDBHEADERROUNDTRIPXREC
350
289
  3
ACDBVARIABLEDICTIONARY
350
2A9
  0
DICTIONARY
  5
D
102
{ACAD_REACTORS
330
C
102
}
330
C
100
AcDbDictionary
  0
DICTIONARY
  5
1A
102
{ACAD_REACTORS
330
C
102
}
330
C
100
AcDbDictionary
  0
DICTIONARY
  5
3B
102
{ACAD_REACTORS
330
C
102
}
330
C
100
AcDbDictionary
  3
BYBLOCK
350
3D
  3
BYLAYER
350
3C
  3
GLOBAL
350
3E
  0
DICTIONARY
  5
2AB
102
{ACAD_REACTORS
330
C
102
}
330
C
100
AcDbDictionary
  0
DICTIONARY
  5
17
102
{ACAD_REACTORS
330
C
102
}
330
C
100
AcDbDictionary
  3
STANDARD
350
18
  0
DICTIONARY
  5
19
102
{ACAD_REACTORS
330
C
102
}
330
C
100
AcDbDictionary
  0
DICTIONARY
  5
2A
102
{ACAD_REACTORS
330
C
102
}
330
C
100
AcDbDictionary
  3
2DWIREFRAME
350
2F
  3
3D_HIDDEN
350
31
  3
3DWIREFRAME
350
30
  3
BASIC
350
32
  3
BRIGHTEN
350
36
  3
COLORCHANGE
350
3A
  3
CONCEPTUAL
350
34
  3
DIM
350
35
  3
FACEPATTERN
350
39
  3
FLAT
350
2B
  3
FLATWITHEDGES
350
2C
  3
GOURAUD
350
2D
  3
GOURAUDWITHEDGES
350
2E
  3
LINEPATTERN
350
38
  3
REALISTIC
350
33
  3
THICKEN
350
37
  0
DICTIONARY
  5
289
102
{ACAD_REACTORS
330
C
102
}
330
C
100
AcDbDictionary
  3
CEPSNTYPE
350
292
  3
DIMSTYLEDATA
350
2A8
  3
FINGERPRINTGUID
350
293
  3
HYPERLINKBASE
350
28C
  3
INSUNITS
350
291
  3
LAYOUTDICT
350
28E
  3
LWETCUNION
350
290
  3
PLOTSETDICT
350
28F
  3
PSVPSCALE
350
295
  3
PUCSBASE
350
298
  3
PUCSORGBACK
350
29E
  3
PUCSORGBOTTOM
350
29A
  3
PUCSORGFRONT
350
29D
  3
PUCSORGLEFT
350
29B
  3
PUCSORGRIGHT
350
29C
  3
PUCSORGTOP
350
299
  3
PUCSORTHOREF
350
296
  3
PUCSORTHOVIEW
350
297
  3
STYLESHEET
350
28D
  3
TSTACKALIGN
350
28A
  3
TSTACKSIZE
350
28B
  3
UCSBASE
350
2A1
  3
UCSORGBACK
350
2A7
  3
UCSORGBOTTOM
350
2A3
  3
UCSORGFRONT
350
2A6
  3
UCSORGLEFT
350
2A4
  3
UCSORGRIGHT
350
2A5
  3
UCSORGTOP
350
2A2
  3
UCSORTHOREF
350
29F
  3
UCSORTHOVIEW
350
2A0
  3
VERSIONGUID
350
294
  0
DICTIONARY
  5
2A9
102
{ACAD_REACTORS
330
C
102
}
330
C
100
AcDbDictionary
  3
DIMASSOC
350
2AE
  3
HIDETEXT
350
2AF
  3
PSOLHEIGHT
350
2AD
  3
PSOLWIDTH
350
2AC
  0
MATERIAL
  5
3D
102
{ACAD_REACTORS
330
3B
102
}
102
{ACAD_XDICTIONARY
360
2B2
102
}
330
3B
100
AcDbMaterial
  1
ByBlock
  0
MATERIAL
  5
3C
102
{ACAD_REACTORS
330
3B
102
}
102
{ACAD_XDICTIONARY
360
2B0
102
}
330
3B
100
AcDbMaterial
  1
ByLayer
  0
MATERIAL
  5
3E
102
{ACAD_REACTORS
330
3B
102
}
102
{ACAD_XDICTIONARY
360
2B4
102
}
330
3B
100
AcDbMaterial
  1
Global
  0
MLINESTYLE
  5
18
102
{ACAD_REACTORS
330
17
102
}
330
17
100
AcDbMlineStyle
  2
Standard
 70
     0
  3

 62
   256
 51
90.0
 52
90.0
 71
     2
 49
0.5
 62
   256
  6
BYLAYER
 49
-0.5
 62
   256
  6
BYLAYER
  0
ACAD_PROXY_OBJECT
  5
2F
102
{ACAD_REACTORS
330
2A
102
}
330
2A
100
AcDbProxyObject
 90
      499
 91
      501
 93
      436
310
42CC9915DA5C99599C985B595049028333333333333E3BF0000000000000FB0107901411070040501600405405064090741402480A0340
1001
ACAD
1000
AcDbSavedByObjectVersion
1070
     0
  0
ACAD_PROXY_OBJECT
  5
31
102
{ACAD_REACTORS
330
2A
102
}
330
2A
100
AcDbProxyObject
 90
      499
 91
      501
 93
      500
310
424CD108121A5919195B90640502408333333333333E3BF0000000000000FB01079024090700405020000000000001110200405405064090740C02480A0340
1001
ACAD
1000
AcDbSavedByObjectVersion
1070
     0
  0
ACAD_PROXY_OBJECT
  5
30
102
{ACAD_REACTORS
330
2A
102
}
330
2A
100
AcDbProxyObject
 90
      499
 91
      501
 93
      436
310
42CCD915DA5C99599C985B595059028333333333333E3BF0000000000000FB0107901411070040501600405405064090741402480A0340
1001
ACAD
1000
AcDbSavedByObjectVersion
1070
     0
  0
ACAD_PROXY_OBJECT
  5
32
102
{ACAD_REACTORS
330
2A
102
}
330
2A
100
AcDbProxyObject
 90
      499
 91
      501
 93
      388
310
4150985CDA58D07406404333333333333E3BF0000000000000FB0107A41107004050150841D405064090741402480A0350
1001
ACAD
1000
AcDbSavedByObjectVersion
1070
     0
  0
ACAD_PROXY_OBJECT
  5
36
102
{ACAD_REACTORS
330
2A
102
}
330
2A
100
AcDbProxyObject
 90
      499
 91
      501
 93
      428
310
42109C9A59DA1D195B90C409028333333333333E3BF0000000000000FB010790141107004050150841D405064090741402480A029950
1001
ACAD
1000
AcDbSavedByObjectVersion
1070
     0
  0
ACAD_PROXY_OBJECT
  5
3A
102
{ACAD_REACTORS
330
2A
102
}
330
2A
100
AcDbProxyObject
 90
      499
 91
      501
 93
      452
310
42D0DBDB1BDC90DA185B99D95104090240C333333333333E3BF0000000000000FB0108901411070040501508421405064090741402480A0350
1001
ACAD
1000
AcDbSavedByObjectVersion
1070
     0
  0
ACAD_PROXY_OBJECT
  5
34
102
{ACAD_REACTORS
330
2A
102
}
330
2A
100
AcDbProxyObject
 90
      499
 91
      501
 93
      500
310
4290DBDB98D95C1D1D585B10940D028333333333333E3BF0000000000000FB0107902409070040501000000000000111010841D405064090740C02480A0340
1001
ACAD
1000
AcDbSavedByObjectVersion
1070
     0
  0
ACAD_PROXY_OBJECT
  5
35
102
{ACAD_REACTORS
330
2A
102
}
330
2A
100
AcDbProxyObject
 90
      499
 91
      501
 93
      412
310
40D11A5B50B409028333333333333E3BF0000000000000FB010790141107004050150841D405064090741402480A02677FFFFFD0
1001
ACAD
1000
AcDbSavedByObjectVersion
1070
     0
  0
ACAD_PROXY_OBJECT
  5
39
102
{ACAD_REACTORS
330
2A
102
}
330
2A
100
AcDbProxyObject
 90
      499
 91
      501
 93
      444
310
42D19858D95C185D1D195C9B90F409028333333333333E3BF0000000000000FB010790141107004050150841D405064090741402480A0350
1001
ACAD
1000
AcDbSavedByObjectVersion
1070
     0
  0
ACAD_PROXY_OBJECT
  5
2B
102
{ACAD_REACTORS
330
2A
102
}
330
2A
100
AcDbProxyObject
 90
      499
 91
      501
 93
      388
310
41119B185D240901404333333333333E3BF0000000000000F9010740A41107004050150841D405064090741402480A1B50
1001
ACAD
1000
AcDbSavedByObjectVersion
1070
     0
  0
ACAD_PROXY_OBJECT
  5
2C
102
{ACAD_REACTORS
330
2A
102
}
330
2A
100
AcDbProxyObject
 90
      499
 91
      501
 93
      476
310
43519B185D15DA5D1A115919D95CD0140901404333333333333E3BF0000000000000F9010740901411070040501600405405064090741402480A1B50
1001
ACAD
1000
AcDbSavedByObjectVersion
1070
     0
  0
ACAD_PROXY_OBJECT
  5
2D
102
{ACAD_REACTORS
330
2A
102
}
330
2A
100
AcDbProxyObject
 90
      499
 91
      501
 93
      412
310
41D1DBDD5C985D5910240902404333333333333E3BF0000000000000F9010740A411070040501641D405064090741402480A1B50
1001
ACAD
1000
AcDbSavedByObjectVersion
1070
     0
  0
ACAD_PROXY_OBJECT
  5
2E
102
{ACAD_REACTORS
330
2A
102
}
330
2A
100
AcDbProxyObject
 90
      499
 91
      501
 93
      500
310
4411DBDD5C985D5915DA5D1A115919D95CD0340902404333333333333E3BF0000000000000F9010740901411070040501600405405064090741402480A1B50
1001
ACAD
1000
AcDbSavedByObjectVersion
1070
     0
  0
ACAD_PROXY_OBJECT
  5
38
102
{ACAD_REACTORS
330
2A
102
}
330
2A
100
AcDbProxyObject
 90
      499
 91
      501
 93
      444
310
42D31A5B995C185D1D195C9B90E409028333333333333E3BF0000000000000FB010790141107004050750841D405064090741402483A0350
1001
ACAD
1000
AcDbSavedByObjectVersion
1070
     0
  0
ACAD_PROXY_OBJECT
  5
33
102
{ACAD_REACTORS
330
2A
102
}
330
2A
100
AcDbProxyObject
 90
      499
 91
      501
 93
      420
310
425499585B1A5CDD1A58D08409028333333333333E3BF0000000000000FB01079019070040501508421405064090741402480A1B40
1001
ACAD
1000
AcDbSavedByObjectVersion
1070
     0
  0
ACAD_PROXY_OBJECT
  5
37
102
{ACAD_REACTORS
330
2A
102
}
330
2A
100
AcDbProxyObject
 90
      499
 91
      501
 93
      412
310
41D51A1A58DAD95B90D409028333333333333E3BF0000000000000FB010790141107004050150C41D405064090741402480A0350
1001
ACAD
1000
AcDbSavedByObjectVersion
1070
     0
  0
XRECORD
  5
292
102
{ACAD_REACTORS
330
289
102
}
330
289
100
AcDbXrecord
 90
        0
  0
XRECORD
  5
2A8
102
{ACAD_REACTORS
330
289
102
}
330
289
100
AcDbXrecord
1000
DSTYLE
1002
{
1070
    41
 40
3.0
1070
   340
340
11
1070
   140
 40
1.22550817624347
1002
}
  0
XRECORD
  5
293
102
{ACAD_REACTORS
330
289
102
}
330
289
100
AcDbXrecord
  1
{0FA13531-0E00-417A-9282-CF50C22F088E}
  0
XRECORD
  5
28C
102
{ACAD_REACTORS
330
289
102
}
330
289
100
AcDbXrecord
  1

  0
XRECORD
  5
291
102
{ACAD_REACTORS
330
289
102
}
330
289
100
AcDbXrecord
 90
        4
  0
XRECORD
  5
28E
102
{ACAD_REACTORS
330
289
102
}
330
289
100
AcDbXrecord
340
1A
  0
XRECORD
  5
290
102
{ACAD_REACTORS
330
289
102
}
330
289
100
AcDbXrecord
 90
    10781
  0
XRECORD
  5
28F
102
{ACAD_REACTORS
330
289
102
}
330
289
100
AcDbXrecord
340
19
  0
XRECORD
  5
295
102
{ACAD_REACTORS
330
289
102
}
330
289
100
AcDbXrecord
 40
0.0
  0
XRECORD
  5
298
102
{ACAD_REACTORS
330
289
102
}
330
289
100
AcDbXrecord
340
0
  0
XRECORD
  5
29E
102
{ACAD_REACTORS
330
289
102
}
330
289
100
AcDbXrecord
 10
0.0
 20
0.0
 30
0.0
  0
XRECORD
  5
29A
102
{ACAD_REACTORS
330
289
102
}
330
289
100
AcDbXrecord
 10
0.0
 20
0.0
 30
0.0
  0
XRECORD
  5
29D
102
{ACAD_REACTORS
330
289
102
}
330
289
100
AcDbXrecord
 10
0.0
 20
0.0
 30
0.0
  0
XRECORD
  5
29B
102
{ACAD_REACTORS
330
289
102
}
330
289
100
AcDbXrecord
 10
0.0
 20
0.0
 30
0.0
  0
XRECORD
  5
29C
102
{ACAD_REACTORS
330
289
102
}
330
289
100
AcDbXrecord
 10
0.0
 20
0.0
 30
0.0
  0
XRECORD
  5
299
102
{ACAD_REACTORS
330
289
102
}
330
289
100
AcDbXrecord
 10
0.0
 20
0.0
 30
0.0
  0
XRECORD
  5
296
102
{ACAD_REACTORS
330
289
102
}
330
289
100
AcDbXrecord
340
0
  0
XRECORD
  5
297
102
{ACAD_REACTORS
330
289
102
}
330
289
100
AcDbXrecord
 70
     0
  0
XRECORD
  5
28D
102
{ACAD_REACTORS
330
289
102
}
330
289
100
AcDbXrecord
  1

  0
XRECORD
  5
28A
102
{ACAD_REACTORS
330
289
102
}
330
289
100
AcDbXrecord
 90
        1
  0
XRECORD
  5
28B
102
{ACAD_REACTORS
330
289
102
}
330
289
100
AcDbXrecord
 90
       70
  0
XRECORD
  5
2A1
102
{ACAD_REACTORS
330
289
102
}
330
289
100
AcDbXrecord
340
0
  0
XRECORD
  5
2A7
102
{ACAD_REACTORS
330
289
102
}
330
289
100
AcDbXrecord
 10
0.0
 20
0.0
 30
0.0
  0
XRECORD
  5
2A3
102
{ACAD_REACTORS
330
289
102
}
330
289
100
AcDbXrecord
 10
0.0
 20
0.0
 30
0.0
  0
XRECORD
  5
2A6
102
{ACAD_REACTORS
330
289
102
}
330
289
100
AcDbXrecord
 10
0.0
 20
0.0
 30
0.0
  0
XRECORD
  5
2A4
102
{ACAD_REACTORS
330
289
102
}
330
289
100
AcDbXrecord
 10
0.0
 20
0.0
 30
0.0
  0
XRECORD
  5
2A5
102
{ACAD_REACTORS
330
289
102
}
330
289
100
AcDbXrecord
 10
0.0
 20
0.0
 30
0.0
  0
XRECORD
  5
2A2
102
{ACAD_REACTORS
330
289
102
}
330
289
100
AcDbXrecord
 10
0.0
 20
0.0
 30
0.0
  0
XRECORD
  5
29F
102
{ACAD_REACTORS
330
289
102
}
330
289
100
AcDbXrecord
340
0
  0
XRECORD
  5
2A0
102
{ACAD_REACTORS
330
289
102
}
330
289
100
AcDbXrecord
 70
     0
  0
XRECORD
  5
294
102
{ACAD_REACTORS
330
289
102
}
330
289
100
AcDbXrecord
  1
{FAEB1C32-E019-11D5-929B-00C0DF256EC4}
  0
DICTIONARYVAR
  5
2AE
102
{ACAD_REACTORS
330
2A9
102
}
330
2A9
100
DictionaryVariables
280
     0
  1
2
  0
DICTIONARYVAR
  5
2AF
102
{ACAD_REACTORS
330
2A9
102
}
330
2A9
100
DictionaryVariables
280
     0
  1
1
  0
DICTIONARYVAR
  5
2AD
102
{ACAD_REACTORS
330
2A9
102
}
330
2A9
100
DictionaryVariables
280
     0
  1
80.000000
  0
DICTIONARYVAR
  5
2AC
102
{ACAD_REACTORS
330
2A9
102
}
330
2A9
100
DictionaryVariables
280
     0
  1
5.000000
  0
DICTIONARY
  5
2B2
330
3D
100
AcDbDictionary
280
     1
  3
ACAD_XREC_ROUNDTRIP
360
2B3
  0
DICTIONARY
  5
2B0
330
3C
100
AcDbDictionary
280
     1
  3
ACAD_XREC_ROUNDTRIP
360
2B1
  0
DICTIONARY
  5
2B4
330
3E
100
AcDbDictionary
280
     1
  3
ACAD_XREC_ROUNDTRIP
360
2B5
  0
XRECORD
  5
2B3
102
{ACAD_REACTORS
330
2B2
102
}
330
2B2
100
AcDbXrecord
102
MATERIAL
148
0.0
149
0.0
149
0.0
 93
        0
 94
      127
282
     0
 72
     1
 77
     1
171
     1
175
     1
179
     1
273
     0
  0
XRECORD
  5
2B1
102
{ACAD_REACTORS
330
2B0
102
}
330
2B0
100
AcDbXrecord
102
MATERIAL
148
0.0
149
0.0
149
0.0
 93
        0
 94
      127
282
     0
 72
     1
 77
     1
171
     1
175
     1
179
     1
273
     0
  0
XRECORD
  5
2B5
102
{ACAD_REACTORS
330
2B4
102
}
330
2B4
100
AcDbXrecord
102
MATERIAL
148
0.0
149
0.0
149
0.0
 93
        0
 94
      127
282
     0
 72
     1
 77
     1
171
     1
175
     1
179
     1
273
     0
  0
ENDSEC
  0
EOF
